<?xml version="1.0" encoding="iso-8859-1"?>
<!-- Generator: Adobe Illustrator 16.0.4, SVG Export Plug-In . SVG Version: 6.00 Build 0)  -->
<!DOCTYPE svg PUBLIC "-//W3C//DTD SVG 1.1//EN" "http://www.w3.org/Graphics/SVG/1.1/DTD/svg11.dtd">
<svg version="1.1" id="Layer_1" xmlns="http://www.w3.org/2000/svg" xmlns:xlink="http://www.w3.org/1999/xlink" x="0px" y="0px"
	 width="300px" height="300px" viewBox="1888.079 2062.812 300 300" style="enable-background:new 1888.079 2062.812 300 300;"
	 xml:space="preserve">
<g>
	<g>
		<g>
			<defs>
				<rect id="SVGID_1_" x="1957.079" y="-214.895" width="162" height="189"/>
			</defs>
			<clipPath id="SVGID_2_">
				<use xlink:href="#SVGID_1_"  style="overflow:visible;"/>
			</clipPath>
			<path style="clip-path:url(#SVGID_2_);fill:#6D6E70;" d="M1984.089-160.992c0.462-29.425,24.455-53.903,53.989-53.903
				c29.536,0,53.526,24.478,53.989,53.903h-27.011c-0.456-14.512-12.355-26.903-26.979-26.903s-26.521,12.391-26.979,26.903
				H1984.089z"/>
		</g>
	</g>
	<polygon style="fill:#818181;" points="2051.323,-52.895 2038.078,-33.026 2024.833,-52.895 1957.079,-52.895 1957.079,-25.895 
		2119.079,-25.895 2119.079,-52.895 	"/>
	<g>
		<g>
			<defs>
				<rect id="SVGID_3_" x="1957.079" y="-214.895" width="162" height="189"/>
			</defs>
			<clipPath id="SVGID_4_">
				<use xlink:href="#SVGID_3_"  style="overflow:visible;"/>
			</clipPath>
			<path style="clip-path:url(#SVGID_4_);fill:#BDDB32;" d="M2065.067-147.233c-0.004-0.105-15.721,27.519-27.023,47.401
				c-11.299-19.873-26.951-47.383-26.955-47.278h-27.01l53.915,94.168l0.109-0.262l0.06,0.138l53.917-94.168L2065.067-147.233
				L2065.067-147.233z"/>
		</g>
	</g>
	<polygon style="fill:#6D6E70;" points="2024.341,-160.942 2038.079,-140.062 2051.815,-160.942 	"/>
</g>
<g>
	<path style="fill:#818181;" d="M3380.452,873.312h27v-108h-27V873.312z M3380.452,738.312h27v-27h-27V738.312z"/>
	<g>
		<g>
			<defs>
				<rect id="SVGID_5_" x="3245.458" y="711.312" width="161.994" height="162"/>
			</defs>
			<clipPath id="SVGID_6_">
				<use xlink:href="#SVGID_5_"  style="overflow:visible;"/>
			</clipPath>
			<path style="clip-path:url(#SVGID_6_);fill:#BDDB32;" d="M3407.452,819.312c0-29.824-24.176-54-54-54v27c14.91,0,27,12.088,27,27
				s-12.09,27-27,27c-14.911,0-27.001-12.088-27.001-27v-108h-27v108c0,29.823,24.178,54,54.001,54
				C3383.276,873.312,3407.452,849.135,3407.452,819.312"/>
		</g>
		<g>
			<defs>
				<rect id="SVGID_7_" x="3245.458" y="711.312" width="161.994" height="162"/>
			</defs>
			<clipPath id="SVGID_8_">
				<use xlink:href="#SVGID_7_"  style="overflow:visible;"/>
			</clipPath>
			<path style="clip-path:url(#SVGID_8_);fill:#6D6E70;" d="M3353.452,819.312v-54h-27.001v54h-0.005
				c0,14.91-12.086,26.997-26.995,27c-14.908-0.003-26.993-12.09-26.993-27v-54h-27v54c0,29.821,24.175,53.997,53.993,54
				c29.822-0.003,53.996-24.179,53.996-54H3353.452z"/>
		</g>
	</g>
</g>
<g>
	<polygon style="fill:#818181;" points="2078.569,277.374 2078.569,331.374 2105.588,385.374 2132.606,385.374 2132.606,385.374 	
		"/>
	<rect x="2105.588" y="277.374" style="fill:#818181;" width="27.02" height="108"/>
	<g>
		<g>
			<defs>
				<rect id="SVGID_9_" x="1943.551" y="277.374" width="189.057" height="108"/>
			</defs>
			<clipPath id="SVGID_10_">
				<use xlink:href="#SVGID_9_"  style="overflow:visible;"/>
			</clipPath>
			<path style="clip-path:url(#SVGID_10_);fill:#BDDB32;" d="M2024.549,331.374L2024.549,331.374h0.006
				c0-14.908,12.091-26.993,27.007-27l0,0h6.808v-27h-7.077v0.004c-29.714,0.152-53.755,24.268-53.755,53.996h-0.006v54h27.019v-27
				h27.059v-27H2024.549z"/>
		</g>
		<g>
			<defs>
				<rect id="SVGID_11_" x="1943.551" y="277.374" width="189.057" height="108"/>
			</defs>
			<clipPath id="SVGID_12_">
				<use xlink:href="#SVGID_11_"  style="overflow:visible;"/>
			</clipPath>
			<path style="clip-path:url(#SVGID_12_);fill:#6D6E70;" d="M1970.569,331.371L1970.569,331.371
				c0.004-14.886,12.062-26.955,26.949-26.992l0.088-0.004v-27c-29.718,0.146-54.054,24.267-54.057,53.997
				c0.003,29.82,24.195,53.994,54.037,53.994v0.006h27.02v-27h-27.02v-0.006C1982.668,358.365,1970.573,346.28,1970.569,331.371"/>
		</g>
	</g>
	<rect x="2051.606" y="277.374" style="fill:#BDDB32;" width="27.019" height="108"/>
</g>
<g>
	<polygon style="fill:#BDDB32;" points="2650.393,231.557 2630.313,242.109 2630.313,268.998 2650.443,258.535 2670.813,269.189 
		2670.813,242.33 	"/>
	<polygon style="fill:#6D6E70;" points="2576.313,420.416 2596.738,431.191 2616.813,420.637 2616.813,393.75 2596.688,404.211 
		2576.313,393.557 	"/>
	<polygon style="fill:#818181;" points="2664.093,385.291 2610.056,277.291 2610.056,331.291 2637.074,385.291 	"/>
	<rect x="2637.074" y="277.291" style="fill:#818181;" width="27.019" height="108"/>
	<g>
		<g>
			<defs>
				<rect id="SVGID_13_" x="2475.036" y="231.557" width="195.776" height="199.633"/>
			</defs>
			<clipPath id="SVGID_14_">
				<use xlink:href="#SVGID_13_"  style="overflow:visible;"/>
			</clipPath>
			<path style="clip-path:url(#SVGID_14_);fill:#BDDB32;" d="M2556.033,331.291L2556.033,331.291h0.007
				c0-14.908,12.091-26.994,27.008-27l0,0h6.806v-27h-7.076v0.004c-29.715,0.152-53.754,24.266-53.754,53.996h-0.008v54h27.02v-27
				h27.059v-27H2556.033z"/>
		</g>
		<g>
			<defs>
				<rect id="SVGID_15_" x="2475.036" y="231.557" width="195.776" height="199.633"/>
			</defs>
			<clipPath id="SVGID_16_">
				<use xlink:href="#SVGID_15_"  style="overflow:visible;"/>
			</clipPath>
			<path style="clip-path:url(#SVGID_16_);fill:#6D6E70;" d="M2502.055,331.287L2502.055,331.287
				c0.004-14.887,12.062-26.955,26.951-26.992l0.086-0.004v-27c-29.717,0.145-54.053,24.266-54.057,53.996
				c0.004,29.82,24.195,53.996,54.037,53.996v0.006h27.02v-27h-27.02v-0.006C2514.154,358.281,2502.059,346.197,2502.055,331.287"/>
		</g>
	</g>
	<rect x="2583.093" y="277.291" style="fill:#BDDB32;" width="27.019" height="108"/>
</g>
<g>
	<polygon style="fill:#6D6E70;" points="1984.079,724.812 1957.079,886.812 1984.079,886.812 2011.079,724.812 	"/>
	<polygon style="fill:#6D6E70;" points="2065.079,724.812 2092.079,886.812 2119.079,886.812 2092.079,724.812 	"/>
	<polygon style="fill:#BDDB32;" points="2060.721,697.812 2065.221,724.812 2092.221,724.812 2087.721,697.812 	"/>
	<rect x="2024.579" y="765.312" style="fill:#6D6E70;" width="27" height="40.5"/>
	<rect x="2024.579" y="832.812" style="fill:#6D6E70;" width="27" height="54"/>
	<polygon style="fill:#BDDB32;" points="1988.578,697.812 1984.079,724.812 2011.079,724.812 2015.578,697.812 	"/>
	
		<rect x="2015.009" y="699.574" transform="matrix(0.7071 0.7071 -0.7071 0.7071 1107.9019 -1221.563)" style="fill:#9FD100;" width="26.998" height="54.001"/>
	
		<rect x="2020.637" y="713.066" transform="matrix(0.7071 0.7071 -0.7071 0.7071 1113.4989 -1235.0914)" style="fill:#9FD100;" width="54" height="27"/>
</g>
<g>
	<g>
		<defs>
			<rect id="SVGID_17_" x="1941.639" y="1143.312" width="192.881" height="162"/>
		</defs>
		<clipPath id="SVGID_18_">
			<use xlink:href="#SVGID_17_"  style="overflow:visible;"/>
		</clipPath>
		<path style="clip-path:url(#SVGID_18_);fill:#9FD100;" d="M2130.541,1278.312c-10.273-34.1-39.537-60.852-77.17-66.225
			c0,0-1.182-0.229-1.764-0.312v27.387c1.08-0.001,3.781,0.56,3.781,0.56c21.236,4.941,38.1,19.653,46.436,38.59L2130.541,1278.312
			L2130.541,1278.312z"/>
	</g>
	<g>
		<defs>
			<rect id="SVGID_19_" x="1941.639" y="1143.312" width="192.881" height="162"/>
		</defs>
		<clipPath id="SVGID_20_">
			<use xlink:href="#SVGID_19_"  style="overflow:visible;"/>
		</clipPath>
		<path style="clip-path:url(#SVGID_20_);fill:#6D6E70;" d="M2038.109,1170.29l26.998,19.192v-26.832l-27.049-19.339l-26.951,19.304
			v26.843L2038.109,1170.29z M2134.52,1305.312c-0.002-9.318-1.387-18.393-3.979-27h-17.502h-11.213h-50.219v-88.83h-27v115.83
			h12.021h14.979h55.916h5.516H2134.52z"/>
	</g>
	<g>
		<defs>
			<rect id="SVGID_21_" x="1941.639" y="1143.312" width="192.881" height="162"/>
		</defs>
		<clipPath id="SVGID_22_">
			<use xlink:href="#SVGID_21_"  style="overflow:visible;"/>
		</clipPath>
		<path style="clip-path:url(#SVGID_22_);fill:#BDDB32;" d="M2024.547,1239.162v-27.387c-0.582,0.083-1.764,0.312-1.764,0.312
			c-37.633,5.373-66.895,32.124-77.17,66.225h0.004c-2.592,8.607-3.977,17.682-3.979,27h21.484h5.514h28.914v-27h-23.217h-0.006
			c8.338-18.936,25.199-33.646,46.439-38.59C2020.768,1239.722,2023.469,1239.161,2024.547,1239.162"/>
	</g>
</g>
<g>
	<g>
		<g>
			<defs>
				<rect id="SVGID_23_" x="2484.671" y="1156.789" width="176.508" height="135.045"/>
			</defs>
			<clipPath id="SVGID_24_">
				<use xlink:href="#SVGID_23_"  style="overflow:visible;"/>
			</clipPath>
			<path style="clip-path:url(#SVGID_24_);fill:#9FD100;" d="M2643.703,1228.158l-19.296,19.294
				c3.623,5.2,6.347,11.069,7.969,17.382h-43.419l-70.765-99.209l-21.981,15.68l78.353,110.529h85.546
				C2665.016,1259.702,2651.947,1238.608,2643.703,1228.158"/>
		</g>
		<g>
			<defs>
				<rect id="SVGID_25_" x="2484.671" y="1156.789" width="176.508" height="135.045"/>
			</defs>
			<clipPath id="SVGID_26_">
				<use xlink:href="#SVGID_25_"  style="overflow:visible;"/>
			</clipPath>
			<path style="clip-path:url(#SVGID_26_);fill:#6D6E70;" d="M2511.109,1178.724l33.125-0.056l-15.58-21.844l-33.252-0.036
				l-10.73,31.366l15.589,21.854L2511.109,1178.724z M2643.748,1228.113c-5.614-7.104-12.394-13.248-20.047-18.137l-0.026,0.028
				c-12.507-7.952-33.722-16.722-64.149-9.877l17.397,24.389c11.411-0.723,19.831,1.848,26.935,5.303l-35.013,35.015h-40.725
				c0.92-3.585,2.194-7.028,3.793-10.285l-17.023-23.865c-19.705,26.32-15.266,56.759-14.528,61.15h80.287L2643.748,1228.113z"/>
		</g>
	</g>
</g>
<g>
	<g>
		<g>
			<defs>
				<rect id="SVGID_27_" x="1949.308" y="1619.648" width="177.543" height="162.326"/>
			</defs>
			<clipPath id="SVGID_28_">
				<use xlink:href="#SVGID_27_"  style="overflow:visible;"/>
			</clipPath>
			<path style="clip-path:url(#SVGID_28_);fill:#BDDB32;" d="M2126.851,1693.133c-19.501-28.088-51.984-46.484-88.771-46.484v27
				c19.542,0,37.461,6.926,51.454,18.449l-70.771,70.771l19.092,19.092l69.428-69.428c0.021,0.033,0.044,0.068,0.064,0.102
				L2126.851,1693.133z"/>
		</g>
		<g>
			<defs>
				<rect id="SVGID_29_" x="1949.308" y="1619.648" width="177.543" height="162.326"/>
			</defs>
			<clipPath id="SVGID_30_">
				<use xlink:href="#SVGID_29_"  style="overflow:visible;"/>
			</clipPath>
			<path style="clip-path:url(#SVGID_30_);fill:#6D6E70;" d="M2012.352,1718.275c5.112-5.748,15.853-13.812,25.537-17.627v-27
				c-38.517,6.48-63.579,44.465-63.579,44.465l63.17,63.861l19.175-19.008L2012.352,1718.275z"/>
		</g>
		<g>
			<defs>
				<rect id="SVGID_31_" x="1949.308" y="1619.648" width="177.543" height="162.326"/>
			</defs>
			<clipPath id="SVGID_32_">
				<use xlink:href="#SVGID_31_"  style="overflow:visible;"/>
			</clipPath>
			<path style="clip-path:url(#SVGID_32_);fill:#818181;" d="M1949.309,1666.133c19.501-28.088,51.983-46.484,88.771-46.484v27
				c-45.011,0-69.203,38.885-69.203,38.885c-0.021,0.035-0.044,0.068-0.064,0.104L1949.309,1666.133z"/>
		</g>
	</g>
</g>
<g>
	<g>
		<g>
			<defs>
				<rect id="SVGID_33_" x="1957.079" y="2118.283" width="162" height="189.057"/>
			</defs>
			<clipPath id="SVGID_34_">
				<use xlink:href="#SVGID_33_"  style="overflow:visible;"/>
			</clipPath>
			<path style="clip-path:url(#SVGID_34_);fill:#9FD100;" d="M2038.079,2145.283v-27c-44.735,0-81,36.266-81,81h27
				C1984.079,2169.459,2008.255,2145.283,2038.079,2145.283"/>
		</g>
	</g>
	<polygon style="fill:#BDDB32;" points="2092.079,2226.283 2092.079,2280.34 2038.079,2280.34 2038.079,2307.34 2092.079,2307.34 
		2119.079,2307.34 2119.079,2226.283 	"/>
	<g>
		<g>
			<defs>
				<rect id="SVGID_35_" x="1957.079" y="2118.283" width="162" height="189.057"/>
			</defs>
			<clipPath id="SVGID_36_">
				<use xlink:href="#SVGID_35_"  style="overflow:visible;"/>
			</clipPath>
			<path style="clip-path:url(#SVGID_36_);fill:#6D6E70;" d="M2119.079,2226.283v-27c0-44.734-36.266-81-81-81v27
				c29.823,0,54,24.176,54,54h-135v81.057l0,0v27l0,0h27h54v-27h-54v-54.057h40.5v27h27v-27H2119.079z"/>
		</g>
	</g>
</g>
<g>
	<g>
		<g>
			<defs>
				<rect id="SVGID_37_" x="1952.305" y="2587.018" width="171.549" height="171.588"/>
			</defs>
			<clipPath id="SVGID_38_">
				<use xlink:href="#SVGID_37_"  style="overflow:visible;"/>
			</clipPath>
			<path style="clip-path:url(#SVGID_38_);fill:#9FD100;" d="M1952.305,2670.278c13.564,25.744,40.582,43.299,71.703,43.299v-27
				c-23.811,0-44.02-15.409-51.201-36.8L1952.305,2670.278z"/>
		</g>
		<g>
			<defs>
				<rect id="SVGID_39_" x="1952.305" y="2587.018" width="171.549" height="171.588"/>
			</defs>
			<clipPath id="SVGID_40_">
				<use xlink:href="#SVGID_39_"  style="overflow:visible;"/>
			</clipPath>
			<path style="clip-path:url(#SVGID_40_);fill:#BDDB32;" d="M2041.031,2587.018c-25.902,13.514-43.59,40.617-43.59,71.854h27
				c0-23.933,15.572-44.226,37.135-51.31L2041.031,2587.018z"/>
		</g>
		<g>
			<defs>
				<rect id="SVGID_41_" x="1952.305" y="2587.018" width="171.549" height="171.588"/>
			</defs>
			<clipPath id="SVGID_42_">
				<use xlink:href="#SVGID_41_"  style="overflow:visible;"/>
			</clipPath>
			<path style="clip-path:url(#SVGID_42_);fill:#BDDB32;" d="M2078.443,2687.013h-27c0,23.722-15.297,43.87-36.564,51.121
				l20.473,20.472C2060.982,2745.006,2078.443,2718.051,2078.443,2687.013"/>
		</g>
		<g>
			<defs>
				<rect id="SVGID_43_" x="1952.305" y="2587.018" width="171.549" height="171.588"/>
			</defs>
			<clipPath id="SVGID_44_">
				<use xlink:href="#SVGID_43_"  style="overflow:visible;"/>
			</clipPath>
			<path style="clip-path:url(#SVGID_44_);fill:#9FD100;" d="M2123.854,2676.001c-13.52-25.887-40.613-43.559-71.84-43.559v27
				c23.92,0,44.203,15.555,51.299,37.1L2123.854,2676.001z"/>
		</g>
	</g>
	<rect x="2024.443" y="2659.442" style="fill:#6D6E70;" width="27" height="27"/>
</g>
<g>
	<polygon style="fill:#818181;" points="1964.369,3817.309 1964.369,3844.309 2038.08,3817.636 2111.789,3844.309 
		2111.789,3817.309 2038.08,3790.636 	"/>
	<rect x="1964.504" y="3736.5" style="fill:#6D6E70;" width="27" height="108"/>
	<rect x="2084.654" y="3736.5" style="fill:#6D6E70;" width="27" height="108"/>
	<polygon style="fill:#9FD100;" points="2038.08,3844.747 2038.08,3871.747 2111.789,3844.5 2111.789,3817.5 	"/>
	<polygon style="fill:#BDDB32;" points="1964.369,3844.5 2038.08,3871.747 2038.08,3844.747 1964.369,3817.5 	"/>
	<polygon style="fill:#9FD100;" points="2038.08,3709.253 1964.369,3736.5 1964.369,3763.5 2038.08,3736.253 	"/>
	<polygon style="fill:#BDDB32;" points="2038.08,3709.253 2038.08,3736.253 2111.789,3763.5 2111.789,3736.5 	"/>
	<polygon style="fill:#BDDB32;" points="1964.369,3764.265 2038.08,3790.555 2038.08,3763.555 1964.369,3737.265 	"/>
	<polygon style="fill:#9FD100;" points="2038.08,3763.555 2038.08,3790.555 2111.789,3764.265 2111.789,3737.265 	"/>
</g>
<g>
	<rect x="2534.551" y="-103.145" style="fill:#818181;" width="24.301" height="54"/>
	<rect x="2579.102" y="-103.145" style="fill:#818181;" width="24.3" height="54"/>
	<polygon style="fill:#818181;" points="2622.977,-130.136 2622.977,-49.12 2487.977,-49.12 2487.977,-22.12 2636.477,-22.12 
		2636.477,-22.136 2649.977,-22.136 2649.977,-130.136 	"/>
	<polygon style="fill:#6D6E70;" points="2581.396,-130.136 2569.096,-117.834 2556.796,-130.136 2487.977,-130.136 
		2487.977,-48.874 2514.977,-48.595 2514.977,-103.136 2649.977,-103.136 2649.977,-130.136 	"/>
	<g>
		<g>
			<defs>
				<rect id="SVGID_45_" x="2487.977" y="-224.669" width="162" height="202.55"/>
			</defs>
			<clipPath id="SVGID_46_">
				<use xlink:href="#SVGID_45_"  style="overflow:visible;"/>
			</clipPath>
			<path style="clip-path:url(#SVGID_46_);fill:#9FD100;" d="M2645.474-193.502c-19.505-19.264-46.298-31.166-75.878-31.166
				c-29.793,0-56.753,12.076-76.292,31.587l19.17,19.003c14.646-14.575,34.827-23.59,57.122-23.59
				c22.061,0,42.059,8.821,56.666,23.127l9.911-9.74L2645.474-193.502z"/>
		</g>
		<g>
			<defs>
				<rect id="SVGID_47_" x="2487.977" y="-224.669" width="162" height="202.55"/>
			</defs>
			<clipPath id="SVGID_48_">
				<use xlink:href="#SVGID_47_"  style="overflow:visible;"/>
			</clipPath>
			<path style="clip-path:url(#SVGID_48_);fill:#BDDB32;" d="M2613.256-162.274c-14.039-10.8-26.958-17.36-44.279-17.36
				c-17.544,0-31.86,8.18-44.281,17.36l16.745,16.911c22.677-14.21,36.177-14.751,55.7-0.224L2613.256-162.274z"/>
		</g>
	</g>
</g>
<g>
	<g>
		<g>
			<defs>
				<rect id="SVGID_49_" x="2828.403" y="-224.36" width="225.043" height="207.932"/>
			</defs>
			<clipPath id="SVGID_50_">
				<use xlink:href="#SVGID_49_"  style="overflow:visible;"/>
			</clipPath>
			<path style="clip-path:url(#SVGID_50_);fill:#6D6E70;" d="M2954.343-61.35v-63.481h-0.186c0.006,0.123,0.012,0.246,0.012,0.371
				c0,7.456-6.044,13.5-13.5,13.5c-6.719,0-12.288-4.907-13.325-11.334v60.945L2954.343-61.35L2954.343-61.35z"/>
		</g>
		<g>
			<defs>
				<rect id="SVGID_51_" x="2828.403" y="-224.36" width="225.043" height="207.932"/>
			</defs>
			<clipPath id="SVGID_52_">
				<use xlink:href="#SVGID_51_"  style="overflow:visible;"/>
			</clipPath>
			<path style="clip-path:url(#SVGID_52_);fill:#6D6E70;" d="M2927.175-124.242h-7.057c-9.337,16.14-26.786,27-46.774,27v27
				c30.227,0,56.578-16.559,70.497-41.096c-1.018,0.245-2.079,0.377-3.172,0.377
				C2933.286-110.961,2927.291-116.888,2927.175-124.242"/>
		</g>
		<g>
			<defs>
				<rect id="SVGID_53_" x="2828.403" y="-224.36" width="225.043" height="207.932"/>
			</defs>
			<clipPath id="SVGID_54_">
				<use xlink:href="#SVGID_53_"  style="overflow:visible;"/>
			</clipPath>
			<path style="clip-path:url(#SVGID_54_);fill:#6D6E70;" d="M3008.343-70.242v-27c-19.986,0-37.438-10.86-46.771-27h-7.407
				c-0.115,7.354-6.111,13.281-13.494,13.281c-0.949,0-1.874-0.099-2.767-0.284C2951.833-86.76,2978.157-70.242,3008.343-70.242"/>
		</g>
	</g>
	
		<rect x="2896.91" y="-186.128" transform="matrix(-0.7071 0.7071 -0.7071 -0.7071 4848.7617 -2330.459)" style="fill:#818181;" width="20.249" height="50.22"/>
	
		<rect x="2962.605" y="-186.197" transform="matrix(0.7071 0.7071 -0.7071 0.7071 756.7869 -2149.2192)" style="fill:#818181;" width="20.251" height="50.22"/>
	<g>
		<g>
			<defs>
				<rect id="SVGID_55_" x="2828.403" y="-224.36" width="225.043" height="207.932"/>
			</defs>
			<clipPath id="SVGID_56_">
				<use xlink:href="#SVGID_55_"  style="overflow:visible;"/>
			</clipPath>
			<path style="clip-path:url(#SVGID_56_);fill:#818181;" d="M3019.702-124.461c1.449-6.063,2.223-12.392,2.223-18.899
				c0-44.735-36.267-81-81-81c-44.735,0-81,36.265-81,81c0,6.508,0.771,12.835,2.222,18.899h24.354
				c-2.198-5.882-3.403-12.25-3.403-18.899c0-29.823,28.004-57.827,57.827-57.827c29.822,0,57.824,28.003,57.824,57.827
				c0,6.649-1.205,13.018-3.402,18.899H3019.702z"/>
		</g>
		<g>
			<defs>
				<rect id="SVGID_57_" x="2828.403" y="-224.36" width="225.043" height="207.932"/>
			</defs>
			<clipPath id="SVGID_58_">
				<use xlink:href="#SVGID_57_"  style="overflow:visible;"/>
			</clipPath>
			<path style="clip-path:url(#SVGID_58_);fill:#818181;" d="M2954.253-124.461c0,7.456-6.043,13.5-13.499,13.5
				c-7.455,0-13.5-6.044-13.5-13.5c0-7.455,6.045-13.5,13.5-13.5C2948.21-137.961,2954.253-131.915,2954.253-124.461
				 M2974.503-124.461c0-18.64-15.108-33.75-33.749-33.75c-18.64,0-33.75,15.11-33.75,33.75c0,18.641,15.11,33.75,33.75,33.75
				C2959.395-90.711,2974.503-105.82,2974.503-124.461"/>
		</g>
	</g>
	<polygon style="fill:#BEDA33;" points="2941.138,-42.881 2913.745,-61.529 2913.745,-35.462 2941.217,-16.429 2968.102,-35.572 
		2968.017,-61.547 2968.017,-61.642 	"/>
	<polygon style="fill:#BEDA33;" points="3008.329,-110.538 3008.232,-110.538 3026.995,-83.659 3008.346,-56.269 3034.415,-56.269 
		3053.446,-83.738 3034.301,-110.625 	"/>
	<polygon style="fill:#BEDA33;" points="2828.403,-83.738 2847.436,-56.269 2873.504,-56.269 2854.854,-83.659 2873.616,-110.538 
		2873.52,-110.538 2847.547,-110.625 	"/>
</g>
<g>
	<rect x="3380.455" y="-55.799" style="fill:#6D6E70;" width="27" height="33.75"/>
	<rect x="3245.455" y="-82.799" style="fill:#BDDB32;" width="162" height="27"/>
	<rect x="3287.367" y="-138.057" style="fill:#818181;" width="78.299" height="27"/>
	<g>
		<g>
			<defs>
				<rect id="SVGID_59_" x="3238.832" y="-218.74" width="175.246" height="196.691"/>
			</defs>
			<clipPath id="SVGID_60_">
				<use xlink:href="#SVGID_59_"  style="overflow:visible;"/>
			</clipPath>
			<path style="clip-path:url(#SVGID_60_);fill:#BDDB32;" d="M3393.984-138.057v-27h-0.01c-0.625-29.752-24.553-53.679-53.99-53.685
				h-26.998v0.001c-29.396,0.058-53.271,23.962-53.896,53.684h-0.008v27h27v-26.685h0.02c0.457-14.744,12.355-26.556,26.98-26.562
				v-0.033h26.902v0.033c14.623,0.007,26.521,11.818,26.979,26.562h0.021v26.685H3393.984z"/>
		</g>
		<g>
			<defs>
				<rect id="SVGID_61_" x="3238.832" y="-218.74" width="175.246" height="196.691"/>
			</defs>
			<clipPath id="SVGID_62_">
				<use xlink:href="#SVGID_61_"  style="overflow:visible;"/>
			</clipPath>
			<path style="clip-path:url(#SVGID_62_);fill:#6D6E70;" d="M3393.828-107.819c0,7.456-6.043,13.5-13.5,13.5
				c-7.453,0-13.5-6.044-13.5-13.5s6.047-13.5,13.5-13.5C3387.785-121.319,3393.828-115.274,3393.828-107.819 M3414.078-107.819
				c0-18.64-15.107-33.75-33.75-33.75c-18.639,0-33.75,15.11-33.75,33.75c0,18.639,15.111,33.75,33.75,33.75
				C3398.971-74.069,3414.078-89.181,3414.078-107.819"/>
		</g>
		<g>
			<defs>
				<rect id="SVGID_63_" x="3238.832" y="-218.74" width="175.246" height="196.691"/>
			</defs>
			<clipPath id="SVGID_64_">
				<use xlink:href="#SVGID_63_"  style="overflow:visible;"/>
			</clipPath>
			<path style="clip-path:url(#SVGID_64_);fill:#6D6E70;" d="M3286.082-107.819c0,7.456-6.045,13.5-13.5,13.5
				c-7.457,0-13.5-6.044-13.5-13.5s6.043-13.5,13.5-13.5C3280.037-121.319,3286.082-115.274,3286.082-107.819 M3306.332-107.819
				c0-18.64-15.111-33.75-33.75-33.75c-18.643,0-33.75,15.11-33.75,33.75c0,18.639,15.107,33.75,33.75,33.75
				C3291.221-74.069,3306.332-89.181,3306.332-107.819"/>
		</g>
	</g>
	<rect x="3296.48" y="-69.299" style="fill:#818181;" width="60.072" height="27"/>
	<rect x="3245.58" y="-55.799" style="fill:#6D6E70;" width="27" height="33.75"/>
</g>
<g>
	<rect x="3743.446" y="-195.027" style="fill:#6D6E70;" width="58.05" height="20.25"/>
	<rect x="3639.496" y="-195.027" style="fill:#6D6E70;" width="58.051" height="20.25"/>
	<g>
		<g>
			<defs>
				<rect id="SVGID_65_" x="3639.496" y="-218.652" width="162" height="196.516"/>
			</defs>
			<clipPath id="SVGID_66_">
				<use xlink:href="#SVGID_65_"  style="overflow:visible;"/>
			</clipPath>
			<path style="clip-path:url(#SVGID_66_);fill:#BDDB32;" d="M3733.996-184.902c0,7.456-6.045,13.5-13.5,13.5
				c-7.457,0-13.5-6.044-13.5-13.5c0-7.455,6.043-13.5,13.5-13.5C3727.951-198.402,3733.996-192.357,3733.996-184.902
				 M3754.246-184.902c0-18.64-15.111-33.75-33.75-33.75c-18.641,0-33.75,15.11-33.75,33.75s15.109,33.75,33.75,33.75
				C3739.135-151.152,3754.246-166.263,3754.246-184.902"/>
		</g>
		<g>
			<defs>
				<rect id="SVGID_67_" x="3639.496" y="-218.652" width="162" height="196.516"/>
			</defs>
			<clipPath id="SVGID_68_">
				<use xlink:href="#SVGID_67_"  style="overflow:visible;"/>
			</clipPath>
			<path style="clip-path:url(#SVGID_68_);fill:#BDDB32;" d="M3666.518-82.504c0.462-29.903,24.454-54,53.988-54
				c29.535,0,53.527,24.097,53.989,54h-27.011c-0.456-14.747-12.355-26.562-26.979-26.562s-26.521,11.815-26.979,26.562H3666.518z"
				/>
		</g>
	</g>
	<polygon style="fill:#BDDB32;" points="3747.496,-36.402 3774.496,-49.902 3774.496,-70.152 3747.496,-70.152 	"/>
	<polygon style="fill:#BDDB32;" points="3693.518,-36.402 3666.518,-49.902 3666.518,-70.152 3693.518,-70.152 	"/>
	<rect x="3706.996" y="-82.888" style="fill:#6D6E70;" width="27" height="60.75"/>
</g>
<g>
	<rect x="4812.997" y="3390.959" style="fill:#9FD100;" width="42.165" height="20.334"/>
	<g>
		<g>
			<defs>
				<rect id="SVGID_69_" x="4774.123" y="3274.25" width="215.912" height="152.5"/>
			</defs>
			<clipPath id="SVGID_70_">
				<use xlink:href="#SVGID_69_"  style="overflow:visible;"/>
			</clipPath>
			<path style="clip-path:url(#SVGID_70_);fill:#6D6E70;" d="M4809.742,3401.33c0,5.615-4.559,10.168-10.178,10.168
				s-10.176-4.553-10.176-10.168s4.557-10.168,10.176-10.168S4809.742,3395.713,4809.742,3401.33 M4825.008,3401.33
				c0-14.039-11.391-25.42-25.442-25.42c-14.05,0-25.44,11.381-25.44,25.42s11.392,25.42,25.44,25.42
				C4813.617,3426.75,4825.008,3415.369,4825.008,3401.33"/>
		</g>
		<g>
			<defs>
				<rect id="SVGID_71_" x="4774.123" y="3274.25" width="215.912" height="152.5"/>
			</defs>
			<clipPath id="SVGID_72_">
				<use xlink:href="#SVGID_71_"  style="overflow:visible;"/>
			</clipPath>
			<path style="clip-path:url(#SVGID_72_);fill:#BDDB32;" d="M4819.918,3320.127v-20.666c-22.058,0.004-40.01,17.826-40.672,40.062
				h-0.033v31.113h20.353v-30.504h0.024C4799.934,3329.029,4808.9,3320.131,4819.918,3320.127 M4821.555,3299.461h-1.638v20.643
				h1.638V3299.461z M4892.497,3332.047c-3.794-17.883-18.978-31.455-37.462-32.512v20.73c9.934,1.145,17.693,9.551,18.014,19.865
				h0.012v10.139L4892.497,3332.047z"/>
		</g>
		<g>
			<defs>
				<rect id="SVGID_73_" x="4774.123" y="3274.25" width="215.912" height="152.5"/>
			</defs>
			<clipPath id="SVGID_74_">
				<use xlink:href="#SVGID_73_"  style="overflow:visible;"/>
			</clipPath>
			<path style="clip-path:url(#SVGID_74_);fill:#9FD100;" d="M4920.699,3370.443h-0.004c-0.075-17.875-11.877-33.029-28.236-38.406
				l-19.385,18.236l6.92,0.014v0.008c11.094,0.344,19.983,9.271,20.021,20.252c-0.037,10.982-8.928,20.053-20.021,20.396v20.344
				c22.483-0.346,40.609-18.512,40.703-40.68h0.002c0-0.021,0-0.041,0-0.062C4920.698,3370.51,4920.699,3370.479,4920.699,3370.443"
				/>
		</g>
		<g>
			<defs>
				<rect id="SVGID_75_" x="4774.123" y="3274.25" width="215.912" height="152.5"/>
			</defs>
			<clipPath id="SVGID_76_">
				<use xlink:href="#SVGID_75_"  style="overflow:visible;"/>
			</clipPath>
			<path style="clip-path:url(#SVGID_76_);fill:#6D6E70;" d="M4878.161,3401.33c0,5.615-4.556,10.168-10.176,10.168
				s-10.177-4.553-10.177-10.168s4.557-10.168,10.177-10.168S4878.161,3395.713,4878.161,3401.33 M4893.428,3401.33
				c0-14.039-11.393-25.42-25.441-25.42c-14.051,0-25.439,11.381-25.439,25.42s11.391,25.42,25.439,25.42
				S4893.428,3415.369,4893.428,3401.33"/>
		</g>
	</g>
	<rect x="4966.822" y="3390.959" style="fill:#BDDB32;" width="23.213" height="20.334"/>
	<g>
		<g>
			<defs>
				<rect id="SVGID_77_" x="4774.123" y="3274.25" width="215.912" height="152.5"/>
			</defs>
			<clipPath id="SVGID_78_">
				<use xlink:href="#SVGID_77_"  style="overflow:visible;"/>
			</clipPath>
			<path style="clip-path:url(#SVGID_78_);fill:#BDDB32;" d="M4978.172,3299.461h-8.906c-19.521,0.004-35.826,13.963-39.777,32.586
				l19.438,18.223v-10.137h0.012c0.345-11.104,9.311-20.002,20.33-20.006v-0.025h8.904V3299.461L4978.172,3299.461z"/>
		</g>
		<g>
			<defs>
				<rect id="SVGID_79_" x="4774.123" y="3274.25" width="215.912" height="152.5"/>
			</defs>
			<clipPath id="SVGID_80_">
				<use xlink:href="#SVGID_79_"  style="overflow:visible;"/>
			</clipPath>
			<path style="clip-path:url(#SVGID_80_);fill:#9FD100;" d="M4924.379,3380.041c-1.688,7.51-5.285,14.326-10.266,19.918
				c7.275,6.869,17.07,11.162,27.879,11.328v-20.344C4934.352,3390.707,4927.758,3386.33,4924.379,3380.041 M4948.912,3350.273
				l-19.387-18.236c-5.775,1.896-10.979,5.02-15.305,9.045c4.971,5.59,8.547,12.404,10.202,19.924
				c3.39-6.203,9.96-10.475,17.567-10.711v-0.008L4948.912,3350.273z"/>
		</g>
		<g>
			<defs>
				<rect id="SVGID_81_" x="4774.123" y="3274.25" width="215.912" height="152.5"/>
			</defs>
			<clipPath id="SVGID_82_">
				<use xlink:href="#SVGID_81_"  style="overflow:visible;"/>
			</clipPath>
			<path style="clip-path:url(#SVGID_82_);fill:#818181;" d="M4943.823,3401.33c0,5.615,4.558,10.168,10.177,10.168
				s10.176-4.553,10.176-10.168s-4.557-10.168-10.176-10.168S4943.823,3395.713,4943.823,3401.33 M4928.559,3401.33
				c0-14.039,11.391-25.42,25.44-25.42s25.44,11.381,25.44,25.42s-11.391,25.42-25.44,25.42S4928.559,3415.369,4928.559,3401.33"/>
		</g>
		<g>
			<defs>
				<rect id="SVGID_83_" x="4774.123" y="3274.25" width="215.912" height="152.5"/>
			</defs>
			<clipPath id="SVGID_84_">
				<use xlink:href="#SVGID_83_"  style="overflow:visible;"/>
			</clipPath>
			<path style="clip-path:url(#SVGID_84_);fill:#6D6E70;" d="M4838.16,3356.25c5.562,0,10.125-4.562,10.125-10.125
				S4843.723,3336,4838.16,3336s-10.125,4.562-10.125,10.125C4828.035,3351.689,4832.596,3356.25,4838.16,3356.25
				 M4832.152,3327.211h11.348l3.896-35.271v-17.691h-19.138v17.58L4832.152,3327.211z"/>
		</g>
	</g>
</g>
<g>
	<polygon style="fill:#6D6E70;" points="2859.925,270.624 2859.925,324.624 2886.925,324.624 2886.925,297.624 2994.925,297.624 
		3021.925,270.624 	"/>
	<g>
		<g>
			<defs>
				<rect id="SVGID_85_" x="2859.925" y="270.624" width="162" height="121.5"/>
			</defs>
			<clipPath id="SVGID_86_">
				<use xlink:href="#SVGID_85_"  style="overflow:visible;"/>
			</clipPath>
			<path style="clip-path:url(#SVGID_86_);fill:#BDDB32;" d="M2940.925,392.124v-27h-27c-14.909,0-26.996-12.085-27-26.994v-0.006
				l0,0v-13.5h-27v13.5l0,0c0,0.002,0,0.004,0,0.006c0.004,29.821,24.179,53.994,54,53.994H2940.925z"/>
		</g>
		<g>
			<defs>
				<rect id="SVGID_87_" x="2859.925" y="270.624" width="162" height="121.5"/>
			</defs>
			<clipPath id="SVGID_88_">
				<use xlink:href="#SVGID_87_"  style="overflow:visible;"/>
			</clipPath>
			<path style="clip-path:url(#SVGID_88_);fill:#818181;" d="M3021.925,270.624l-27,27v40.5l0,0c0,0.002,0,0.004,0,0.006
				c-0.003,14.909-12.091,26.994-27,26.994h-27v27h27c29.821,0,53.997-24.173,54-53.994v-0.006V270.624z"/>
		</g>
	</g>
	<polygon style="fill:#BDDB32;" points="2982.928,310.373 2954.29,310.373 2940.846,323.817 2940.925,352.376 	"/>
	<polygon style="fill:#818181;" points="2940.925,352.376 2941.004,323.817 2927.56,310.373 2898.922,310.373 	"/>
</g>
<g>
	<g>
		<g>
			<defs>
				<rect id="SVGID_89_" x="2481.873" y="697.356" width="174.207" height="189.91"/>
			</defs>
			<clipPath id="SVGID_90_">
				<use xlink:href="#SVGID_89_"  style="overflow:visible;"/>
			</clipPath>
			<path style="clip-path:url(#SVGID_90_);fill:#9FD100;" d="M2616.571,697.356c-40.657,5.627-74.289,37.562-80.386,80.27
				c0,0-0.229,1.181-0.311,1.764h27.387c-0.001-1.079,0.559-3.779,0.559-3.779c6.119-26.292,27.207-45.885,52.751-50.887V697.356z"
				/>
		</g>
	</g>
	<rect x="2535.873" y="698.267" style="fill:#6D6E70;" width="27" height="40.5"/>
	<rect x="2535.873" y="846.767" style="fill:#6D6E70;" width="27" height="40.5"/>
	<rect x="2481.873" y="698.267" style="fill:#6D6E70;" width="27" height="189"/>
	<rect x="2535.873" y="808.826" style="fill:#BDDB32;" width="27" height="30.78"/>
	<rect x="2535.873" y="738.767" style="fill:#BDDB32;" width="27" height="40.5"/>
	<polygon style="fill:#818181;" points="2587.349,837.627 2598.091,848.372 2604.234,843.407 2604.271,854.55 2636.987,887.267 
		2636.987,887.267 2656.08,868.175 2606.438,818.536 	"/>
	<g>
		<g>
			<defs>
				<rect id="SVGID_91_" x="2481.873" y="697.356" width="174.207" height="189.91"/>
			</defs>
			<clipPath id="SVGID_92_">
				<use xlink:href="#SVGID_91_"  style="overflow:visible;"/>
			</clipPath>
			<path style="clip-path:url(#SVGID_92_);fill:#818181;" d="M2587.731,767.256c15.813,15.815,15.813,41.46,0,57.275
				c-15.818,15.816-41.461,15.816-57.277,0c-15.814-15.815-15.814-41.46,0.001-57.275
				C2546.271,751.439,2571.914,751.439,2587.731,767.256 M2606.821,748.165c-26.358-26.36-69.099-26.36-95.458,0
				c-26.359,26.358-26.359,69.099-0.001,95.457c26.36,26.36,69.101,26.36,95.459,0
				C2633.183,817.264,2633.183,774.525,2606.821,748.165"/>
		</g>
	</g>
</g>
<g>
	<rect x="3240.484" y="359.232" style="fill:#BDDB32;" width="123.121" height="27"/>
	<rect x="3240.484" y="318.924" style="fill:#BDDB32;" width="81" height="27"/>
	<g>
		<g>
			<defs>
				<rect id="SVGID_93_" x="3240.484" y="238.078" width="171.939" height="186.592"/>
			</defs>
			<clipPath id="SVGID_94_">
				<use xlink:href="#SVGID_93_"  style="overflow:visible;"/>
			</clipPath>
			<path style="clip-path:url(#SVGID_94_);fill:#6D6E70;" d="M3363.604,386.232v-27h-13.158c-0.537,0.605-1.092,1.205-1.672,1.785
				c-15.816,15.816-41.461,15.816-57.275,0c-0.58-0.58-1.135-1.18-1.672-1.785h-49.342v27H3363.604z"/>
		</g>
	</g>
	<rect x="3240.484" y="278.387" style="fill:#BDDB32;" width="135.002" height="27"/>
	<g>
		<g>
			<defs>
				<rect id="SVGID_95_" x="3240.484" y="238.078" width="171.939" height="186.592"/>
			</defs>
			<clipPath id="SVGID_96_">
				<use xlink:href="#SVGID_95_"  style="overflow:visible;"/>
			</clipPath>
			<path style="clip-path:url(#SVGID_96_);fill:#6D6E70;" d="M3375.486,305.387v-27h-135.002v27h49.465
				c0.5-0.559,1.014-1.108,1.549-1.645c15.816-15.816,41.459-15.816,57.275,0c0.535,0.535,1.049,1.086,1.549,1.645H3375.486z"/>
		</g>
	</g>
	<rect x="3240.484" y="238.078" style="fill:#BDDB32;" width="135.002" height="27"/>
	<polygon style="fill:#818181;" points="3343.693,375.03 3354.438,385.774 3360.58,380.811 3360.617,391.953 3393.332,424.67 
		3412.426,405.578 3362.787,355.939 	"/>
	<g>
		<g>
			<defs>
				<rect id="SVGID_97_" x="3240.484" y="238.078" width="171.939" height="186.592"/>
			</defs>
			<clipPath id="SVGID_98_">
				<use xlink:href="#SVGID_97_"  style="overflow:visible;"/>
			</clipPath>
			<path style="clip-path:url(#SVGID_98_);fill:#818181;" d="M3348.773,303.742c15.816,15.816,15.816,41.461,0,57.275
				c-15.816,15.816-41.459,15.816-57.275,0c-15.816-15.814-15.816-41.459,0-57.275
				C3307.312,287.926,3332.957,287.926,3348.773,303.742 M3367.865,284.65c-26.359-26.359-69.1-26.359-95.459,0
				c-26.361,26.359-26.361,69.1-0.002,95.459c26.361,26.361,69.102,26.361,95.461,0
				C3394.225,353.75,3394.225,311.012,3367.865,284.65"/>
		</g>
	</g>
</g>
<g>
	<g>
		<g>
			<defs>
				<rect id="SVGID_99_" x="2853.487" y="711.312" width="174.875" height="162"/>
			</defs>
			<clipPath id="SVGID_100_">
				<use xlink:href="#SVGID_99_"  style="overflow:visible;"/>
			</clipPath>
			<path style="clip-path:url(#SVGID_100_);fill:#BDDB32;" d="M2955.69,838.344c18.7-27.812,18.283-64.652-1.25-92.063
				l-19.499,19.498c9.583,16.228,9.946,36.387,1.098,52.914L2955.69,838.344z"/>
		</g>
		<g>
			<defs>
				<rect id="SVGID_101_" x="2853.487" y="711.312" width="174.875" height="162"/>
			</defs>
			<clipPath id="SVGID_102_">
				<use xlink:href="#SVGID_101_"  style="overflow:visible;"/>
			</clipPath>
			<path style="clip-path:url(#SVGID_102_);fill:#9FD100;" d="M2975.293,852.648l19.104,19.104
				c20.908-19.696,33.966-47.635,33.966-78.624c0-31.855-13.795-60.486-35.731-80.254l-19.126,19.123
				c17.067,14.851,27.857,36.729,27.857,61.131C3001.362,816.662,2991.32,837.848,2975.293,852.648"/>
		</g>
		<g>
			<defs>
				<rect id="SVGID_103_" x="2853.487" y="711.312" width="174.875" height="162"/>
			</defs>
			<clipPath id="SVGID_104_">
				<use xlink:href="#SVGID_103_"  style="overflow:visible;"/>
			</clipPath>
			<path style="clip-path:url(#SVGID_104_);fill:#9FD100;" d="M2907.487,792.136l12.877,12.876
				c0.949-8.418,0.804-16.938-0.426-25.326L2907.487,792.136z"/>
		</g>
		<g>
			<defs>
				<rect id="SVGID_105_" x="2853.487" y="711.312" width="174.875" height="162"/>
			</defs>
			<clipPath id="SVGID_106_">
				<use xlink:href="#SVGID_105_"  style="overflow:visible;"/>
			</clipPath>
			<path style="clip-path:url(#SVGID_106_);fill:#6D6E70;" d="M2907.672,714.821v-3.51h-27v3.309h-0.014
				c0.002,0.182,0.009,0.359,0.009,0.54c0,24.074-10.505,45.691-27.181,60.527v33.117c32.379-18.646,54.181-53.597,54.181-93.646
				c0-0.112-0.003-0.226-0.007-0.339L2907.672,714.821L2907.672,714.821z"/>
		</g>
		<g>
			<defs>
				<rect id="SVGID_107_" x="2853.487" y="711.312" width="174.875" height="162"/>
			</defs>
			<clipPath id="SVGID_108_">
				<use xlink:href="#SVGID_107_"  style="overflow:visible;"/>
			</clipPath>
			<path style="clip-path:url(#SVGID_108_);fill:#818181;" d="M2907.672,869.532h-0.012c0.004-0.12,0.007-0.237,0.007-0.359
				c0-40.048-21.802-74.998-54.181-93.646v33.12c16.676,14.834,27.181,36.452,27.181,60.525c0,0.181-0.007,0.359-0.009,0.541h0.014
				v3.599h27V869.532z"/>
		</g>
	</g>
</g>
<g>
	<g>
		<g>
			<defs>
				<rect id="SVGID_109_" x="2829.006" y="1156.674" width="223.838" height="135.273"/>
			</defs>
			<clipPath id="SVGID_110_">
				<use xlink:href="#SVGID_109_"  style="overflow:visible;"/>
			</clipPath>
			<path style="clip-path:url(#SVGID_110_);fill:#6E6E70;" d="M2935.496,1211.613l-2.473-26.887
				c-0.037,0.006-0.074,0.006-0.111,0.01v0.004c-46.436,4.359-83.238,37.529-94.396,80.209h28.238
				C2877.045,1236.266,2903.162,1214.629,2935.496,1211.613"/>
		</g>
		<g>
			<defs>
				<rect id="SVGID_111_" x="2829.006" y="1156.674" width="223.838" height="135.273"/>
			</defs>
			<clipPath id="SVGID_112_">
				<use xlink:href="#SVGID_111_"  style="overflow:visible;"/>
			</clipPath>
			<path style="clip-path:url(#SVGID_112_);fill:#9FD100;" d="M2998.08,1265.037c-0.027-24.977-17.312-45.979-40.77-52.117v29.062
				c7.947,4.717,13.27,13.271,13.289,23.055H2998.08z"/>
		</g>
		<g>
			<defs>
				<rect id="SVGID_113_" x="2829.006" y="1156.674" width="223.838" height="135.273"/>
			</defs>
			<clipPath id="SVGID_114_">
				<use xlink:href="#SVGID_113_"  style="overflow:visible;"/>
			</clipPath>
			<path style="clip-path:url(#SVGID_114_);fill:#9FD100;" d="M3052.844,1265.006c-0.113-55.066-42.201-101.49-95.533-108.006
				v27.273c38.406,6.311,68.289,40.584,68.344,80.764L3052.844,1265.006z"/>
		</g>
	</g>
	<path style="fill:#6D6E70;" d="M2855.957,1202.477l67.42,89.473h6.316l17.533-13.217l-69.707-92.504L2855.957,1202.477z
		 M2872.152,1156.674l-33.238,0.836l-9.908,31.635l16.156,21.439l10.025-31.559l33.113-0.922L2872.152,1156.674z"/>
	<rect x="2930.311" y="1156.949" style="fill:#6D6E70;" width="27.002" height="108.088"/>
	<rect x="2838.48" y="1264.949" style="fill:#BDDB32;" width="187.111" height="27"/>
</g>
<g>
	<polygon style="fill:#9FD100;" points="2491.925,1754.445 2491.925,1781.377 2491.925,1781.408 2572.925,1781.408 
		2545.925,1754.445 2518.888,1754.445 2518.888,1727.367 2491.925,1700.404 	"/>
	<polygon style="fill:#6D6E70;" points="2572.925,1755.256 2572.925,1782.188 2572.925,1782.219 2653.925,1782.219 
		2626.925,1755.256 2599.888,1755.256 2599.888,1728.178 2572.925,1701.215 	"/>
	<polygon style="fill:#818181;" points="2572.925,1701.215 2599.926,1728.178 2626.963,1728.178 2626.963,1755.256 
		2653.925,1782.219 2653.925,1701.215 	"/>
	<polygon style="fill:#818181;" points="2491.925,1619.404 2491.925,1673.445 2491.925,1700.375 2491.925,1700.408 
		2572.925,1700.408 2545.925,1673.445 2518.888,1673.445 2518.888,1646.367 	"/>
	<polygon style="fill:#6D6E70;" points="2491.925,1619.404 2518.925,1646.367 2545.961,1646.367 2545.961,1673.445 
		2572.925,1700.408 2572.925,1646.367 2572.925,1619.434 2572.925,1619.404 	"/>
	<polygon style="fill:#9FD100;" points="2572.925,1620.215 2599.925,1647.178 2626.961,1647.178 2626.961,1674.256 
		2653.925,1701.219 2653.925,1620.215 	"/>
</g>
<g>
	<g>
		<g>
			<defs>
				<rect id="SVGID_115_" x="2832.936" y="1619.812" width="215.979" height="162"/>
			</defs>
			<clipPath id="SVGID_116_">
				<use xlink:href="#SVGID_115_"  style="overflow:visible;"/>
			</clipPath>
			<path style="clip-path:url(#SVGID_116_);fill:#6D6E70;" d="M2998.84,1671.183l-45.393,45.393
				c-3.771-1.457-7.865-2.264-12.15-2.264c-4.141,0-8.105,0.749-11.771,2.113l-12.863-12.865c7.838-3.437,16.139-5.593,24.568-6.429
				v-27.099c-15.549,1.155-30.834,5.664-44.691,13.402l-12.889-12.887c14.645-14.555,35.008-23.737,57.285-23.737
				C2963.627,1646.812,2984.135,1656.148,2998.84,1671.183 M2927.797,1748.062c0-7.455,6.043-13.5,13.5-13.5
				c7.455,0,13.5,6.045,13.5,13.5c0,7.457-6.045,13.5-13.5,13.5C2933.84,1761.562,2927.797,1755.519,2927.797,1748.062
				 M3009.947,1660.225l8.059-8.062c-19.598-19.962-46.885-32.353-77.07-32.353c-29.729,0-56.84,12.204-76.369,31.64l-0.025-0.024
				c-6.422,6.418-12.033,13.643-16.68,21.505l4.844,4.844l-0.006,0.006l57.398,57.398c-1.641,3.971-2.551,8.319-2.551,12.883
				c0,18.64,15.109,33.75,33.75,33.75c18.639,0,33.75-15.11,33.75-33.75c0-4.418-0.857-8.633-2.4-12.5l56.316-56.318
				L3009.947,1660.225z"/>
		</g>
		<g>
			<defs>
				<rect id="SVGID_117_" x="2832.936" y="1619.812" width="215.979" height="162"/>
			</defs>
			<clipPath id="SVGID_118_">
				<use xlink:href="#SVGID_117_"  style="overflow:visible;"/>
			</clipPath>
			<path style="clip-path:url(#SVGID_118_);fill:#BDDB32;" d="M2847.906,1672.931c-9.508,16.084-14.973,34.844-14.973,54.881
				c0,6.874,0.65,13.595,1.879,20.113h27.641c-1.645-6.432-2.52-13.171-2.52-20.113c0-12.514,2.842-24.365,7.908-34.947
				L2847.906,1672.931z"/>
		</g>
		<g>
			<defs>
				<rect id="SVGID_119_" x="2832.936" y="1619.812" width="215.979" height="162"/>
			</defs>
			<clipPath id="SVGID_120_">
				<use xlink:href="#SVGID_119_"  style="overflow:visible;"/>
			</clipPath>
			<path style="clip-path:url(#SVGID_120_);fill:#9FD100;" d="M3034.486,1673.831l-0.002,0.003
				c-4.574-7.913-10.127-15.188-16.486-21.669l-19.094,19.093c6.395,6.555,11.686,14.188,15.578,22.604
				c4.768,10.322,7.434,21.813,7.434,33.932c0,6.941-0.873,13.681-2.52,20.111h27.641c1.229-6.517,1.879-13.237,1.879-20.111
				C3048.914,1708.137,3043.662,1689.708,3034.486,1673.831"/>
		</g>
	</g>
</g>
<g>
	<polygon style="fill:#818181;" points="3720.733,2199.312 3801.733,2226.312 3801.733,2199.312 3720.733,2172.312 	"/>
	<g>
		<g>
			<defs>
				<rect id="SVGID_121_" x="3639.925" y="2145.312" width="162" height="135"/>
			</defs>
			<clipPath id="SVGID_122_">
				<use xlink:href="#SVGID_121_"  style="overflow:visible;"/>
			</clipPath>
			<path style="clip-path:url(#SVGID_122_);fill:#9FD100;" d="M3720.733,2199.312v27c28.635,0,54.651-11.153,73.978-29.341
				l-31.479-10.493C3752.271,2193.559,3738.045,2199.312,3720.733,2199.312"/>
		</g>
	</g>
	<polygon style="fill:#BDDB32;" points="3720.733,2253.312 3801.733,2280.312 3801.733,2253.312 3720.733,2226.312 	"/>
	<g>
		<g>
			<defs>
				<rect id="SVGID_123_" x="3639.925" y="2145.312" width="162" height="135"/>
			</defs>
			<clipPath id="SVGID_124_">
				<use xlink:href="#SVGID_123_"  style="overflow:visible;"/>
			</clipPath>
			<path style="clip-path:url(#SVGID_124_);fill:#6D6E70;" d="M3720.733,2253.312v27c28.635,0,54.651-11.153,73.978-29.341
				l-31.479-10.493C3752.271,2247.559,3738.045,2253.312,3720.733,2253.312"/>
		</g>
	</g>
	<polygon style="fill:#BDDB32;" points="3639.925,2145.312 3639.925,2172.312 3720.925,2199.312 3720.925,2172.312 	"/>
	<g>
		<g>
			<defs>
				<rect id="SVGID_125_" x="3639.925" y="2145.312" width="162" height="135"/>
			</defs>
			<clipPath id="SVGID_126_">
				<use xlink:href="#SVGID_125_"  style="overflow:visible;"/>
			</clipPath>
			<path style="clip-path:url(#SVGID_126_);fill:#6D6E70;" d="M3720.925,2172.312v-27c-28.633,0-54.65,11.153-73.979,29.342
				l31.479,10.491C3689.387,2178.065,3703.612,2172.312,3720.925,2172.312"/>
		</g>
	</g>
	<polygon style="fill:#818181;" points="3639.925,2226.312 3720.925,2253.312 3720.925,2226.312 3639.925,2199.312 	"/>
	<g>
		<g>
			<defs>
				<rect id="SVGID_127_" x="3639.925" y="2145.312" width="162" height="135"/>
			</defs>
			<clipPath id="SVGID_128_">
				<use xlink:href="#SVGID_127_"  style="overflow:visible;"/>
			</clipPath>
			<path style="clip-path:url(#SVGID_128_);fill:#9FD100;" d="M3720.925,2226.312v-27c-28.633,0-54.65,11.153-73.979,29.342
				l31.479,10.491C3689.387,2232.065,3703.612,2226.312,3720.925,2226.312"/>
		</g>
	</g>
	<rect x="3720.925" y="2145.312" style="fill:#BDDB32;" width="81" height="27"/>
	<rect x="3639.925" y="2253.312" style="fill:#BDDB32;" width="81" height="27"/>
</g>
<g>
	<rect x="2492.144" y="2246.657" style="fill:#9FD100;" width="161.781" height="27"/>
	<rect x="2492.144" y="2165.401" style="fill:#9FD100;" width="27" height="94.755"/>
	<polygon style="fill:#BDDB32;" points="2626.925,2165.401 2626.925,2246.656 2653.925,2273.656 2653.925,2165.401 	"/>
	<g>
		<g>
			<defs>
				<rect id="SVGID_129_" x="2491.925" y="2111.467" width="162" height="202.688"/>
			</defs>
			<clipPath id="SVGID_130_">
				<use xlink:href="#SVGID_129_"  style="overflow:visible;"/>
			</clipPath>
			<path style="clip-path:url(#SVGID_130_);fill:#6D6E70;" d="M2518.93,2165.467v54.151h27v-54.151h0.007
				c0-14.911,12.085-26.998,26.993-27c14.909,0.002,26.995,12.089,26.995,27v54.151h27v-54.151c0-29.821-24.174-53.998-53.995-54
				c-29.82,0.002-53.993,24.179-53.993,54H2518.93L2518.93,2165.467z"/>
		</g>
	</g>
	<rect x="2518.925" y="2219.62" style="fill:#818181;" width="108" height="27"/>
	<polygon style="fill:#9FD100;" points="2518.925,2287.156 2491.925,2314.156 2653.925,2314.156 2626.925,2287.156 	"/>
	<polygon style="fill:#BDDB32;" points="2599.925,2192.401 2599.925,2165.401 2492.413,2165.401 2518.874,2192.401 
		2518.925,2192.401 	"/>
</g>
<g>
	<g>
		<g>
			<defs>
				<rect id="SVGID_131_" x="2849.834" y="2104.78" width="182.182" height="216.062"/>
			</defs>
			<clipPath id="SVGID_132_">
				<use xlink:href="#SVGID_131_"  style="overflow:visible;"/>
			</clipPath>
			<path style="clip-path:url(#SVGID_132_);fill:#818181;" d="M2955.256,2269.324c-9.554,5.041-20.131,8.515-31.438,10.038v27.188
				c0.651-0.069,1.304-0.132,1.955-0.211c12.34-1.495,24.021-4.791,34.812-9.591L2955.256,2269.324z M2987.569,2241.325
				c-5.073,6.969-11.092,13.244-17.895,18.615l11.259,25.283c10.951-7.688,20.517-17.12,28.347-27.83L2987.569,2241.325z
				 M3032.016,2198.615l-27.206-0.003c-1.299,9.472-4.021,18.559-7.966,27.003l24.772,10.771
				C3027.032,2224.61,3030.612,2211.884,3032.016,2198.615"/>
		</g>
		<g>
			<defs>
				<rect id="SVGID_133_" x="2849.834" y="2104.78" width="182.182" height="216.062"/>
			</defs>
			<clipPath id="SVGID_134_">
				<use xlink:href="#SVGID_133_"  style="overflow:visible;"/>
			</clipPath>
			<path style="clip-path:url(#SVGID_134_);fill:#818181;" d="M2875.856,2137.632l20.551,113.646l27-10.578l-21.025-107.887
				c-5.372,3.609-11.838,5.717-18.797,5.717C2880.925,2138.53,2878.339,2138.214,2875.856,2137.632"/>
		</g>
		<g>
			<defs>
				<rect id="SVGID_135_" x="2849.834" y="2104.78" width="182.182" height="216.062"/>
			</defs>
			<clipPath id="SVGID_136_">
				<use xlink:href="#SVGID_135_"  style="overflow:visible;"/>
			</clipPath>
			<path style="clip-path:url(#SVGID_136_);fill:#818181;" d="M2961.217,2158.78c-5.965,32.972-31.89,58.999-64.81,65.116v27.345
				c47.855-6.602,85.698-44.552,92.134-92.461H2961.217z"/>
		</g>
	</g>
	<polygon style="fill:#BDDB32;" points="2888.935,2266.574 2870.284,2294.429 2889.43,2320.777 2915.88,2320.843 2896.735,2293.964 
		2915.387,2266.574 	"/>
	<g>
		<g>
			<defs>
				<rect id="SVGID_137_" x="2849.834" y="2104.78" width="182.182" height="216.062"/>
			</defs>
			<clipPath id="SVGID_138_">
				<use xlink:href="#SVGID_137_"  style="overflow:visible;"/>
			</clipPath>
			<path style="clip-path:url(#SVGID_138_);fill:#6D6E70;" d="M2849.834,2104.78L2849.834,2104.78c0,18.639,15.11,33.75,33.75,33.75
				s33.75-15.111,33.75-33.75h-20.25c0,7.456-6.044,13.5-13.5,13.5s-13.5-6.044-13.5-13.5H2849.834z"/>
		</g>
	</g>
</g>
<g>
	<rect x="3380.455" y="2199.369" style="fill:#231F20;" width="27" height="27"/>
	<rect x="3245.455" y="2280.369" style="fill:#BDDB32;" width="27" height="27"/>
	<rect x="3285.955" y="2253.369" style="fill:#9FD100;" width="27" height="27"/>
	<rect x="3380.455" y="2226.369" style="fill:#BDDB32;" width="27" height="27"/>
	<g>
		<g>
			<defs>
				<rect id="SVGID_139_" x="3245.455" y="2118.254" width="162" height="189.115"/>
			</defs>
			<clipPath id="SVGID_140_">
				<use xlink:href="#SVGID_139_"  style="overflow:visible;"/>
			</clipPath>
			<path style="clip-path:url(#SVGID_140_);fill:#9FD100;" d="M3326.455,2145.254v-27c-44.735,0-81,36.266-81,81h27
				C3272.455,2169.432,3296.631,2145.254,3326.455,2145.254"/>
		</g>
		<g>
			<defs>
				<rect id="SVGID_141_" x="3245.455" y="2118.254" width="162" height="189.115"/>
			</defs>
			<clipPath id="SVGID_142_">
				<use xlink:href="#SVGID_141_"  style="overflow:visible;"/>
			</clipPath>
			<path style="clip-path:url(#SVGID_142_);fill:#6D6E70;" d="M3407.455,2226.369v-27h-0.003
				c-0.146-44.611-36.353-81.115-80.997-81.115v27c29.734,0,53.852,24.414,53.997,54.115h-40.497h-27h-67.5v81h27v-54h40.5v27h27
				v-27H3407.455z"/>
		</g>
	</g>
	<rect x="3272.455" y="2280.254" style="fill:#BDDB32;" width="13.5" height="27"/>
	<rect x="3312.955" y="2280.254" style="fill:#9FD100;" width="27" height="27"/>
	<polygon style="fill:#6D6E70;" points="3353.455,2253.254 3353.455,2307.254 3407.455,2307.254 3407.455,2280.254 
		3380.455,2280.254 3380.455,2253.254 	"/>
</g>
<g>
	<rect x="4019.925" y="2131.771" style="fill:#818181;" width="27" height="134.998"/>
	<rect x="4019.925" y="2131.771" style="fill:#818181;" width="81" height="27"/>
	<rect x="4019.925" y="2266.771" style="fill:#231F20;" width="27" height="27"/>
	<g>
		<g>
			<defs>
				<rect id="SVGID_143_" x="4019.925" y="2131.77" width="162" height="162.084"/>
			</defs>
			<clipPath id="SVGID_144_">
				<use xlink:href="#SVGID_143_"  style="overflow:visible;"/>
			</clipPath>
			<path style="clip-path:url(#SVGID_144_);fill:#6D6E70;" d="M4073.956,2266.69l-0.031,0.017L4073.956,2266.69z M4154.925,2212.77
				h27c0-44.735-36.266-81-81-81v27C4130.748,2158.77,4154.925,2182.948,4154.925,2212.77 M4181.925,2239.885v-27h-162l0.01,80.969
				h26.99v-53.969h40.5v27.026l27-0.143v-26.885L4181.925,2239.885L4181.925,2239.885z"/>
		</g>
	</g>
	<polygon style="fill:#BDDB32;" points="4154.925,2239.911 4154.925,2266.771 4046.925,2266.771 4046.925,2293.77 4181.925,2293.77 
		4181.925,2239.911 	"/>
</g>
<g>
	<g>
		<g>
			<defs>
				<rect id="SVGID_145_" x="4794.277" y="2856.5" width="175.604" height="108"/>
			</defs>
			<clipPath id="SVGID_146_">
				<use xlink:href="#SVGID_145_"  style="overflow:visible;"/>
			</clipPath>
			<path style="clip-path:url(#SVGID_146_);fill:#BEDC32;" d="M4821.277,2910.5c0,14.909,12.084,26.996,26.992,27h0.008l0,0h13.5v27
				h-13.5l0,0c-0.004,0-0.004,0-0.004,0c-29.823-0.004-53.996-24.179-53.996-54H4821.277z"/>
		</g>
		<g>
			<defs>
				<rect id="SVGID_147_" x="4794.277" y="2856.5" width="175.604" height="108"/>
			</defs>
			<clipPath id="SVGID_148_">
				<use xlink:href="#SVGID_147_"  style="overflow:visible;"/>
			</clipPath>
			<path style="clip-path:url(#SVGID_148_);fill:#A0D200;" d="M4821.277,2910.5c0-14.909,12.084-26.996,26.992-27h0.008l0,0h13.5
				v-27h-13.5l0,0c-0.004,0-0.004,0-0.004,0c-29.823,0.004-53.996,24.179-53.996,54H4821.277z"/>
		</g>
		<g>
			<defs>
				<rect id="SVGID_149_" x="4794.277" y="2856.5" width="175.604" height="108"/>
			</defs>
			<clipPath id="SVGID_150_">
				<use xlink:href="#SVGID_149_"  style="overflow:visible;"/>
			</clipPath>
			<path style="clip-path:url(#SVGID_150_);fill:#A0D200;" d="M4942.883,2910.5c0,14.909-12.086,26.996-26.994,27h-0.006l0,0
				h-54.104v27h54.104l0,0c0.002,0,0.004,0,0.004,0c29.822-0.004,53.996-24.179,53.996-54H4942.883z"/>
		</g>
		<g>
			<defs>
				<rect id="SVGID_151_" x="4794.277" y="2856.5" width="175.604" height="108"/>
			</defs>
			<clipPath id="SVGID_152_">
				<use xlink:href="#SVGID_151_"  style="overflow:visible;"/>
			</clipPath>
			<path style="clip-path:url(#SVGID_152_);fill:#BEDC32;" d="M4942.883,2910.5c0-14.909-12.086-26.996-26.994-27h-0.006l0,0
				h-54.104v-27h54.104l0,0c0.002,0,0.004,0,0.004,0c29.822,0.004,53.996,24.179,53.996,54H4942.883z"/>
		</g>
		<g>
			<defs>
				<rect id="SVGID_153_" x="4794.277" y="2856.5" width="175.604" height="108"/>
			</defs>
			<clipPath id="SVGID_154_">
				<use xlink:href="#SVGID_153_"  style="overflow:visible;"/>
			</clipPath>
			<path style="clip-path:url(#SVGID_154_);fill:#828282;" d="M4882.836,2910.5c0-11.184-9.064-20.25-20.25-20.25
				c-11.184,0-20.25,9.066-20.25,20.25s9.066,20.25,20.25,20.25S4882.836,2921.684,4882.836,2910.5"/>
		</g>
	</g>
</g>
<g>
	<rect x="2503.064" y="2672.953" style="fill:#BDDB32;" width="27" height="78.301"/>
	<rect x="2584.064" y="2594.654" style="fill:#BDDB32;" width="27" height="78.301"/>
	
		<rect x="2548.256" y="2586.495" transform="matrix(-0.7071 0.7071 -0.7071 -0.7071 6225.9824 2661.7886)" style="fill:#9FD100;" width="27.001" height="67.498"/>
	
		<rect x="2518.456" y="2711.879" transform="matrix(0.7071 0.7071 -0.7071 0.7071 2674.6575 -1006.4365)" style="fill:#9FD100;" width="67.498" height="27"/>
	<rect x="2475.982" y="2618.842" style="fill:#6D6E70;" width="81" height="27"/>
	<rect x="2557.018" y="2699.842" style="fill:#6D6E70;" width="81" height="27"/>
	<g>
		<g>
			<defs>
				<rect id="SVGID_155_" x="2463.467" y="2586.928" width="187.102" height="171.826"/>
			</defs>
			<clipPath id="SVGID_156_">
				<use xlink:href="#SVGID_155_"  style="overflow:visible;"/>
			</clipPath>
			<path style="clip-path:url(#SVGID_156_);fill:#BDDB32;" d="M2547.473,2647.586c3.479,1.312,6.744,3.361,9.545,6.162
				c10.545,10.545,10.545,27.641,0,38.184c-2.801,2.803-6.066,4.852-9.547,6.164c9.623,3.629,20.895,1.58,28.639-6.164
				c10.543-10.543,10.545-27.639,0-38.184C2568.365,2646.004,2557.092,2643.955,2547.473,2647.586"/>
		</g>
		<g>
			<defs>
				<rect id="SVGID_157_" x="2463.467" y="2586.928" width="187.102" height="171.826"/>
			</defs>
			<clipPath id="SVGID_158_">
				<use xlink:href="#SVGID_157_"  style="overflow:visible;"/>
			</clipPath>
			<path style="clip-path:url(#SVGID_158_);fill:#6D6E70;" d="M2576.109,2691.932c-10.543,10.545-27.641,10.547-38.184,0
				c-10.545-10.543-10.545-27.639,0-38.184c10.543-10.543,27.641-10.543,38.184,0
				C2586.654,2664.293,2586.654,2681.389,2576.109,2691.932 M2595.201,2711.025c21.088-21.09,21.088-55.279,0-76.369
				c-21.088-21.088-55.279-21.088-76.367,0c-21.088,21.09-21.088,55.281,0,76.369S2574.113,2732.113,2595.201,2711.025"/>
		</g>
		<g>
			<defs>
				<rect id="SVGID_159_" x="2463.467" y="2586.928" width="187.102" height="171.826"/>
			</defs>
			<clipPath id="SVGID_160_">
				<use xlink:href="#SVGID_159_"  style="overflow:visible;"/>
			</clipPath>
			<path style="clip-path:url(#SVGID_160_);fill:#6D6E70;" d="M2557.018,2645.842c14.912,0,27,12.088,27,27s-12.088,27-27,27
				s-27-12.088-27-27S2542.105,2645.842,2557.018,2645.842 M2557.018,2618.842c-29.822,0-54,24.176-54,54c0,29.822,24.178,54,54,54
				c29.824,0,54-24.178,54-54C2611.018,2643.018,2586.842,2618.842,2557.018,2618.842"/>
		</g>
	</g>
	<polygon style="fill:#9FD100;" points="2576.109,2691.932 2595.203,2711.025 2650.568,2655.658 2650.568,2655.658 
		2631.477,2636.568 	"/>
	
		<rect x="2487.01" y="2632.767" transform="matrix(0.7071 0.7071 -0.7071 0.7071 2621.7124 -985.5415)" style="fill:#9FD100;" width="27" height="78.298"/>
	<g>
		<g>
			<defs>
				<rect id="SVGID_161_" x="2463.467" y="2586.928" width="187.102" height="171.826"/>
			</defs>
			<clipPath id="SVGID_162_">
				<use xlink:href="#SVGID_161_"  style="overflow:visible;"/>
			</clipPath>
			<path style="clip-path:url(#SVGID_162_);fill:#818181;" d="M2530.018,2672.842c0-14.912,12.088-27,27-27s27,12.088,27,27
				s-12.088,27-27,27S2530.018,2687.754,2530.018,2672.842 M2503.018,2672.842c0,29.822,24.176,54,54,54s54-24.178,54-54
				c0-29.824-24.176-54-54-54S2503.018,2643.018,2503.018,2672.842"/>
		</g>
	</g>
</g>
<g>
	
		<rect x="2878.094" y="2619.217" transform="matrix(-0.7071 0.7071 -0.7071 -0.7071 6814.5747 2489.9941)" style="fill:#828282;" width="26.998" height="74.25"/>
	
		<rect x="2944.237" y="2586.449" transform="matrix(-0.7071 -0.7071 0.7071 -0.7071 3194.0269 6570.1558)" style="fill:#828282;" width="27" height="74.249"/>
	
		<rect x="2910.98" y="2684.896" transform="matrix(-0.7071 -0.7071 0.7071 -0.7071 3067.6406 6714.6992)" style="fill:#828282;" width="27" height="74.25"/>
	
		<rect x="2976.725" y="2652.58" transform="matrix(-0.7071 0.7071 -0.7071 -0.7071 7006.5381 2477.1013)" style="fill:#828282;" width="27.002" height="74.25"/>
	<rect x="2853.175" y="2659.312" style="fill:#A0D200;" width="175.5" height="27"/>
	<rect x="2927.425" y="2585.062" style="fill:#A0D200;" width="27" height="175.5"/>
	
		<rect x="2910.944" y="2586.443" transform="matrix(-0.7071 0.7071 -0.7071 -0.7071 6847.481 2410.8154)" style="fill:#BEDC32;" width="27" height="74.249"/>
	
		<rect x="2944.296" y="2684.796" transform="matrix(-0.7071 0.7071 -0.7071 -0.7071 6973.9629 2555.1296)" style="fill:#BEDC32;" width="27.001" height="74.248"/>
	
		<rect x="2976.521" y="2619.167" transform="matrix(0.7071 0.7071 -0.7071 0.7071 2754.1411 -1336.26)" style="fill:#BEDC32;" width="26.998" height="74.251"/>
	
		<rect x="2877.888" y="2652.521" transform="matrix(0.7071 0.7071 -0.7071 0.7071 2748.7344 -1256.7407)" style="fill:#BEDC32;" width="27" height="74.249"/>
</g>
<g>
	<polygon style="fill:#818181;" points="3323.059,2648.365 3323.059,2713.086 3350.059,2713.086 3350.059,2642.965 	"/>
	<polygon style="fill:#6D6E70;" points="3269.059,2693.168 3296.059,2693.168 3296.059,2653.766 3269.102,2659.158 	"/>
	<polygon style="fill:#6D6E70;" points="3403.866,2632.203 3377.059,2637.566 3377.059,2740.418 3323.059,2740.418 
		3323.059,2767.418 3404.059,2767.418 3404.059,2632.203 	"/>
	<g>
		<g>
			<defs>
				<rect id="SVGID_163_" x="3248.852" y="2578.203" width="155.205" height="189.217"/>
			</defs>
			<clipPath id="SVGID_164_">
				<use xlink:href="#SVGID_163_"  style="overflow:visible;"/>
			</clipPath>
			<path style="clip-path:url(#SVGID_164_);fill:#BDDB32;" d="M3296.102,2733.668c0,7.455-6.043,13.5-13.5,13.5
				c-7.455,0-13.5-6.045-13.5-13.5c0-7.457,6.045-13.5,13.5-13.5C3290.059,2720.168,3296.102,2726.211,3296.102,2733.668
				 M3316.352,2733.668c0-18.641-15.109-33.75-33.75-33.75c-18.64,0-33.75,15.109-33.75,33.75c0,18.639,15.11,33.75,33.75,33.75
				C3301.242,2767.418,3316.352,2752.307,3316.352,2733.668"/>
		</g>
	</g>
	<polygon style="fill:#9FD100;" points="3404.059,2578.203 3269.059,2605.203 3269.059,2632.203 3404.059,2605.203 	"/>
</g>
<g>
	<g>
		<g>
			<defs>
				<rect id="SVGID_165_" x="3625.274" y="2601.676" width="191.301" height="142.271"/>
			</defs>
			<clipPath id="SVGID_166_">
				<use xlink:href="#SVGID_165_"  style="overflow:visible;"/>
			</clipPath>
			<path style="clip-path:url(#SVGID_166_);fill:#BDDB32;" d="M3679.292,2631.918v84.979h27v-76.42
				C3697.702,2636.758,3688.667,2633.875,3679.292,2631.918"/>
		</g>
	</g>
	<rect x="3625.274" y="2716.947" style="fill:#818181;" width="124.931" height="27"/>
	<polygon style="fill:#6D6E70;" points="3625.274,2650.842 3625.274,2743.947 3652.274,2716.947 3652.274,2650.842 	"/>
	<g>
		<g>
			<defs>
				<rect id="SVGID_167_" x="3625.274" y="2601.676" width="191.301" height="142.271"/>
			</defs>
			<clipPath id="SVGID_168_">
				<use xlink:href="#SVGID_167_"  style="overflow:visible;"/>
			</clipPath>
			<path style="clip-path:url(#SVGID_168_);fill:#818181;" d="M3760.292,2743.947c-7.256-52.598-52.885-93.104-107.479-93.104
				c-0.18,0-0.358,0.006-0.54,0.008v27c0.181-0.002,0.36-0.008,0.54-0.008c39.647,0,73.141,28.485,80.133,66.104H3760.292z"/>
		</g>
		<g>
			<defs>
				<rect id="SVGID_169_" x="3625.274" y="2601.676" width="191.301" height="142.271"/>
			</defs>
			<clipPath id="SVGID_170_">
				<use xlink:href="#SVGID_169_"  style="overflow:visible;"/>
			</clipPath>
			<path style="clip-path:url(#SVGID_170_);fill:#BDDB32;" d="M3733.292,2655.93v88.018h27v-62.252
				C3752.477,2671.961,3743.391,2663.291,3733.292,2655.93"/>
		</g>
		<g>
			<defs>
				<rect id="SVGID_171_" x="3625.274" y="2601.676" width="191.301" height="142.271"/>
			</defs>
			<clipPath id="SVGID_172_">
				<use xlink:href="#SVGID_171_"  style="overflow:visible;"/>
			</clipPath>
			<path style="clip-path:url(#SVGID_172_);fill:#9FD100;" d="M3652.274,2601.68v-0.004h-0.189h-26.811v49.121h27v-21.844
				c68.034,1.006,124.388,50.211,136.431,114.993h27.87C3804.064,2653.279,3727.879,2602.611,3652.274,2601.68"/>
		</g>
	</g>
</g>
<g>
	<polygon style="fill:#818181;" points="828.611,670.067 801.611,697.067 801.611,804.933 828.611,804.933 	"/>
	<polygon style="fill:#6D6E70;" points="679.41,670.067 679.41,858.933 760.41,858.933 760.41,831.933 706.41,831.933 
		706.41,697.067 801.611,697.067 828.611,670.067 	"/>
	<rect x="720.35" y="750.933" style="fill:#9FD100;" width="67.5" height="27"/>
	<rect x="720.898" y="791.433" style="fill:#9FD100;" width="39.689" height="27"/>
	<rect x="720.35" y="710.433" style="fill:#9FD100;" width="67.5" height="27"/>
	<polygon style="fill:#9FD100;" points="787.664,813.411 787.664,839.829 814.945,858.933 814.945,858.933 841.59,840.276 
		841.59,813.857 814.945,832.514 	"/>
</g>
<g>
	<g>
		<g>
			<defs>
				<rect id="SVGID_173_" x="2505.518" y="3723.092" width="134.814" height="134.816"/>
			</defs>
			<clipPath id="SVGID_174_">
				<use xlink:href="#SVGID_173_"  style="overflow:visible;"/>
			</clipPath>
			<path style="clip-path:url(#SVGID_174_);fill:#818181;" d="M2586.682,3857.908c26.949-5.473,48.178-26.699,53.65-53.652h-28.494
				c-4.146,11.725-13.438,21.012-25.156,25.156V3857.908z M2534.012,3804.256h-28.494c5.473,26.953,26.699,48.18,53.65,53.652
				v-28.496C2547.447,3825.268,2538.156,3815.98,2534.012,3804.256"/>
		</g>
		<g>
			<defs>
				<rect id="SVGID_175_" x="2505.518" y="3723.092" width="134.814" height="134.816"/>
			</defs>
			<clipPath id="SVGID_176_">
				<use xlink:href="#SVGID_175_"  style="overflow:visible;"/>
			</clipPath>
			<path style="clip-path:url(#SVGID_176_);fill:#6D6E70;" d="M2586.682,3723.096c26.949,5.467,48.178,26.695,53.65,53.648h-28.494
				c-4.146-11.725-13.438-21.01-25.156-25.156V3723.096z M2534.012,3776.744h-28.494c5.473-26.953,26.699-48.182,53.65-53.648
				v28.492C2547.447,3755.734,2538.156,3765.021,2534.012,3776.744"/>
		</g>
	</g>
	
		<rect x="2559.145" y="3776.623" transform="matrix(-0.7071 0.7071 -0.7071 -0.7071 7072.4199 4651.2656)" style="fill:#BDDB32;" width="27.514" height="27.512"/>
</g>
<g>
	<rect x="2910.648" y="3803.98" style="fill:#6D6E70;" width="26.963" height="53.928"/>
	<rect x="2910.742" y="3831.037" style="fill:#6D6E70;" width="53.926" height="26.963"/>
	<rect x="2991.49" y="3830.943" style="fill:#6D6E70;" width="53.926" height="26.963"/>
	<rect x="3018.547" y="3803.889" style="fill:#6D6E70;" width="26.963" height="53.924"/>
	<rect x="2910.65" y="3723.092" style="fill:#6D6E70;" width="26.961" height="26.963"/>
	<rect x="2910.648" y="3749.963" style="fill:#BDDB32;" width="80.889" height="26.963"/>
	<rect x="2937.611" y="3723" style="fill:#BDDB32;" width="26.963" height="80.887"/>
	<rect x="3018.547" y="3723.092" style="fill:#6D6E70;" width="26.963" height="53.928"/>
	<rect x="2991.49" y="3723" style="fill:#6D6E70;" width="53.926" height="26.963"/>
</g>
<g>
	<polygon style="fill:#6D6E70;" points="3408.568,3723.094 3408.568,3830.945 3300.717,3830.945 3300.717,3857.906 
		3408.568,3857.906 3435.531,3857.906 3435.531,3830.945 3435.531,3723.094 	"/>
	<polygon style="fill:#BDDB32;" points="3352.217,3817.463 3378.635,3817.463 3397.738,3790.182 3397.738,3790.182 
		3379.084,3763.537 3352.664,3763.537 3371.32,3790.182 	"/>
	<polygon style="fill:#818181;" points="3300.717,3776.904 3300.717,3776.934 3300.717,3857.906 3327.68,3830.945 3327.68,3803.867 
		3348.711,3803.867 3348.711,3776.904 	"/>
	<polygon style="fill:#818181;" points="3300.717,3723.094 3300.717,3750.055 3408.568,3750.055 3435.531,3723.094 	"/>
</g>
<g>
	
		<rect x="150.492" y="115.095" transform="matrix(0.7071 0.7071 -0.7071 0.7071 153.6082 -67.7551)" style="fill:#A0D200;" width="16.2" height="72.898"/>
	
		<rect x="121.855" y="142.748" transform="matrix(0.7071 -0.7071 0.7071 0.7071 -77.1934 139.6328)" style="fill:#BEDC32;" width="16.2" height="40.498"/>
	<g>
		<g>
			<defs>
				<rect id="SVGID_177_" x="69" y="69" width="162" height="162"/>
			</defs>
			<clipPath id="SVGID_178_">
				<use xlink:href="#SVGID_177_"  style="overflow:visible;"/>
			</clipPath>
			<path style="clip-path:url(#SVGID_178_);fill:#A0D200;" d="M195.82,104.18l11.455-11.457c-31.633-31.633-82.919-31.633-114.551,0
				c-31.633,31.633-31.633,82.919,0,114.552l11.455-11.455c-25.307-25.307-25.307-66.335-0.001-91.64
				C129.485,78.873,170.516,78.873,195.82,104.18"/>
		</g>
		<g>
			<defs>
				<rect id="SVGID_179_" x="69" y="69" width="162" height="162"/>
			</defs>
			<clipPath id="SVGID_180_">
				<use xlink:href="#SVGID_179_"  style="overflow:visible;"/>
			</clipPath>
			<path style="clip-path:url(#SVGID_180_);fill:#BEDC32;" d="M195.82,104.18l11.455-11.457c31.632,31.633,31.632,82.919,0,114.552
				c-31.633,31.631-82.919,31.631-114.551,0l11.454-11.457c25.307,25.308,66.335,25.308,91.642,0.002
				C221.127,170.514,221.127,129.484,195.82,104.18"/>
		</g>
	</g>
</g>
<g>
	<rect x="6903.75" y="-160.895" style="fill:#9FD100;" width="27" height="60.75"/>
	<rect x="6863.25" y="-140.645" style="fill:#BDDB32;" width="27" height="40.5"/>
	<rect x="6944.25" y="-181.145" style="fill:#818181;" width="27" height="94.904"/>
	<rect x="6849.75" y="-86.645" style="fill:#6D6E70;" width="121.5" height="27"/>
</g>
<g>
	<rect x="6856.77" y="229.364" style="fill:#BEDC32;" width="108.002" height="22.949"/>
	<rect x="6899.293" y="185.077" style="fill:#BEDC32;" width="22.95" height="108.002"/>
	<g>
		<g>
			<defs>
				<rect id="SVGID_181_" x="6849.75" y="175.587" width="121.5" height="135.574"/>
			</defs>
			<clipPath id="SVGID_182_">
				<use xlink:href="#SVGID_181_"  style="overflow:visible;"/>
			</clipPath>
			<path style="clip-path:url(#SVGID_182_);fill:#828282;" d="M6971.244,261.353h0.006v-67.5h-23.175v67.5h-0.013
				c0.002,0.18,0.013,0.357,0.013,0.539c0,18.641-18.937,26.098-37.575,26.098c-18.641,0-37.577-7.457-37.577-26.098
				c0-0.182,0.011-0.359,0.015-0.539h-0.015v-67.5h-23.173v67.5h0.006c-0.001,0.18-0.006,0.357-0.006,0.539
				c0,33.551,27.197,49.271,60.75,49.271c33.552,0,60.75-15.72,60.75-49.271C6971.25,261.71,6971.244,261.532,6971.244,261.353"/>
		</g>
	</g>
	<polygon style="fill:#A0D200;" points="6910.5,175.587 6849.75,187.642 6849.75,210.815 6910.5,198.761 6971.25,210.815 
		6971.25,187.642 	"/>
</g>
<g>
	<g>
		<g>
			<defs>
				<rect id="SVGID_183_" x="6829.5" y="559.874" width="162" height="135"/>
			</defs>
			<clipPath id="SVGID_184_">
				<use xlink:href="#SVGID_183_"  style="overflow:visible;"/>
			</clipPath>
			<path style="clip-path:url(#SVGID_184_);fill:#818181;" d="M6829.506,613.813v54.092h27v-54.092h0.006
				c0-14.894,12.085-26.967,26.994-26.969v-0.002c14.908,0.004,26.994,12.077,26.994,26.971v54.092h27v-54.092
				c0-29.787-24.174-53.937-53.994-53.939c-29.82,0.004-53.994,24.152-53.994,53.939H6829.506z"/>
		</g>
	</g>
	<rect x="6829.5" y="667.905" style="fill:#6D6E70;" width="108" height="26.969"/>
	<rect x="6856.5" y="613.657" style="fill:#BDDB32;" width="81" height="27"/>
	<g>
		<g>
			<defs>
				<rect id="SVGID_185_" x="6829.5" y="559.874" width="162" height="135"/>
			</defs>
			<clipPath id="SVGID_186_">
				<use xlink:href="#SVGID_185_"  style="overflow:visible;"/>
			</clipPath>
			<path style="clip-path:url(#SVGID_186_);fill:#9FD100;" d="M6978,694.874c7.418,0,13.5-6.082,13.5-13.5s-6.082-13.5-13.5-13.5
				c-7.416,0-13.5,6.082-13.5,13.5S6970.584,694.874,6978,694.874 M6969.988,656.155h15.131l5.193-47.027V585.54h-25.518v23.439
				L6969.988,656.155z"/>
		</g>
	</g>
</g>
<g>
	<g>
		<g>
			<defs>
				<rect id="SVGID_187_" x="6834.414" y="927.075" width="152.172" height="144.598"/>
			</defs>
			<clipPath id="SVGID_188_">
				<use xlink:href="#SVGID_187_"  style="overflow:visible;"/>
			</clipPath>
			<path style="clip-path:url(#SVGID_188_);fill:#9FD100;" d="M6986.586,958.243c-19.506-19.266-46.299-31.168-75.877-31.168
				c-29.795,0-56.755,12.078-76.295,31.588l19.172,19.004c14.645-14.574,34.826-23.592,57.123-23.592
				c22.059,0,42.057,8.824,56.662,23.129l9.914-9.74L6986.586,958.243z"/>
		</g>
		<g>
			<defs>
				<rect id="SVGID_189_" x="6834.414" y="927.075" width="152.172" height="144.598"/>
			</defs>
			<clipPath id="SVGID_190_">
				<use xlink:href="#SVGID_189_"  style="overflow:visible;"/>
			</clipPath>
			<path style="clip-path:url(#SVGID_190_);fill:#BDDB32;" d="M6954.367,989.472c-14.04-10.801-26.957-17.36-44.279-17.36
				c-17.543,0-31.859,8.182-44.279,17.36l16.744,16.91c10.729-6.723,19.389-10.842,27.632-10.842c9.354,0,17.78,2.963,28.067,10.617
				L6954.367,989.472z"/>
		</g>
	</g>
	<polygon style="fill:#6D6E70;" points="6896.764,1019.882 6910.5,1031.202 6924.238,1019.882 	"/>
	<polygon style="fill:#818181;" points="6922.254,1044.702 6910.5,1054.388 6898.746,1044.702 6856.5,1044.702 6856.5,1071.673 
		6964.5,1071.673 6964.5,1044.702 	"/>
</g>
<g>
	
		<rect x="6855.039" y="1327.895" transform="matrix(0.7071 0.7071 -0.7071 0.7071 2967.4639 -4481.3027)" style="fill:#BDDB32;" width="76.207" height="26.998"/>
	
		<rect x="6879.314" y="1337.948" transform="matrix(-0.7071 -0.7071 0.7071 -0.7071 10793.3428 7223.4883)" style="fill:#BDDB32;" width="26.998" height="76.52"/>
	
		<rect x="6889.431" y="1362.932" transform="matrix(-0.7071 -0.7071 0.7071 -0.7071 10853.1553 7248.3281)" style="fill:#9FD100;" width="76.61" height="26.998"/>
	
		<rect x="6889.578" y="1328.002" transform="matrix(-0.7071 0.7071 -0.7071 -0.7071 12774.9902 -2608.5015)" style="fill:#818181;" width="76.298" height="27"/>
	<rect x="6896.725" y="1345.353" style="fill:#BDDB32;" width="27" height="76.521"/>
	<rect x="6847.58" y="1345.36" style="fill:#BDDB32;" width="76.209" height="27"/>
	<rect x="6896.809" y="1345.39" style="fill:#9FD100;" width="76.611" height="27"/>
	<rect x="6896.816" y="1296.155" style="fill:#9FD100;" width="27" height="76.299"/>
	<rect x="6896.816" y="1325.204" style="fill:#FFFFFF;" width="27" height="67.5"/>
	<rect x="6876.566" y="1345.454" style="fill:#FFFFFF;" width="67.502" height="27"/>
</g>
<g>
	<rect x="6843" y="1719.76" style="fill:#A0D200;" width="27" height="27"/>
	<rect x="6870" y="1746.76" style="fill:#828282;" width="27" height="27"/>
	<rect x="6870" y="1693.301" style="fill:#828282;" width="27" height="27"/>
	<rect x="6897" y="1719.76" style="fill:#A0D200;" width="27" height="27"/>
	<rect x="6897" y="1666.301" style="fill:#BEDC32;" width="27" height="27"/>
	<rect x="6897" y="1773.76" style="fill:#A0D200;" width="27" height="27"/>
	<rect x="6924" y="1746.76" style="fill:#A0D200;" width="27" height="27"/>
	<rect x="6924" y="1693.301" style="fill:#A0D200;" width="27" height="27"/>
	<rect x="6951" y="1719.76" style="fill:#828282;" width="27" height="27"/>
</g>
<g>
	<polygon style="fill:#BDDB32;" points="6869.991,2135.167 6843,2162.134 6977.787,2162.134 6950.795,2135.167 	"/>
	<rect x="6951.008" y="2026.866" style="fill:#818181;" width="26.992" height="95.084"/>
	<rect x="6843" y="2094.983" style="fill:#818181;" width="121.504" height="26.967"/>
	<polygon style="fill:#6D6E70;" points="6843,2026.866 6843,2053.835 6951.008,2053.835 6978,2026.866 	"/>
	<polygon style="fill:#6D6E70;" points="6843,2040.618 6843,2121.683 6869.99,2095.251 6869.99,2040.618 	"/>
	
		<rect x="6896.973" y="2060.713" transform="matrix(0.7071 -0.7071 0.7071 0.7071 557.2534 5493.8027)" style="fill:#9FD100;" width="26.999" height="27.001"/>
</g>
<g>
	<g>
		<g>
			<defs>
				<rect id="SVGID_191_" x="6843" y="2384.541" width="135" height="107.98"/>
			</defs>
			<clipPath id="SVGID_192_">
				<use xlink:href="#SVGID_191_"  style="overflow:visible;"/>
			</clipPath>
			<path style="clip-path:url(#SVGID_192_);fill:#828282;" d="M6910.5,2452.031c7.418,0,13.5-6.082,13.5-13.5s-6.082-13.5-13.5-13.5
				s-13.5,6.082-13.5,13.5S6903.082,2452.031,6910.5,2452.031"/>
		</g>
		<g>
			<defs>
				<rect id="SVGID_193_" x="6843" y="2384.541" width="135" height="107.98"/>
			</defs>
			<clipPath id="SVGID_194_">
				<use xlink:href="#SVGID_193_"  style="overflow:visible;"/>
			</clipPath>
			<path style="clip-path:url(#SVGID_194_);fill:#BEDC32;" d="M6978,2438.521h-29.604c-9.533,16.527-27.068,26.604-45.729,26.961
				v0.039H6870v27h32.668v-0.024C6935.633,2492.076,6966.354,2471.412,6978,2438.521"/>
		</g>
		<g>
			<defs>
				<rect id="SVGID_195_" x="6843" y="2384.541" width="135" height="107.98"/>
			</defs>
			<clipPath id="SVGID_196_">
				<use xlink:href="#SVGID_195_"  style="overflow:visible;"/>
			</clipPath>
			<path style="clip-path:url(#SVGID_196_);fill:#A0D200;" d="M6843,2438.539h29.604c9.531-16.523,27.067-26.602,45.727-26.959
				v-0.041h32.672v-27h-32.672v0.027C6885.366,2384.986,6854.646,2405.652,6843,2438.539"/>
		</g>
	</g>
</g>
<g>
	<rect x="6856.365" y="2714.874" style="fill:#A0D200;" width="22.951" height="87.664"/>
	<g>
		<g>
			<defs>
				<rect id="SVGID_197_" x="6856.365" y="2701.333" width="108.27" height="148.455"/>
			</defs>
			<clipPath id="SVGID_198_">
				<use xlink:href="#SVGID_197_"  style="overflow:visible;"/>
			</clipPath>
			<path style="clip-path:url(#SVGID_198_);fill:#A0D200;" d="M6910.5,2812.614c6.305,0,11.475-5.17,11.475-11.475
				c0-6.306-5.17-11.476-11.475-11.476c-6.307,0-11.477,5.17-11.477,11.476C6899.023,2807.444,6904.195,2812.614,6910.5,2812.614"/>
		</g>
	</g>
	<rect x="6941.686" y="2802.538" style="fill:#828282;" width="22.949" height="47.25"/>
	<rect x="6856.365" y="2826.839" style="fill:#828282;" width="108.27" height="22.949"/>
	<rect x="6856.365" y="2802.538" style="fill:#828282;" width="22.951" height="47.25"/>
	<rect x="6941.686" y="2714.874" style="fill:#A0D200;" width="22.949" height="87.664"/>
	<rect x="6856.365" y="2701.333" style="fill:#BEDC32;" width="108.27" height="22.948"/>
</g>
<g>
	<g>
		<defs>
			<rect id="SVGID_199_" x="6843.596" y="3067.672" width="133.809" height="133.656"/>
		</defs>
		<clipPath id="SVGID_200_">
			<use xlink:href="#SVGID_199_"  style="overflow:visible;"/>
		</clipPath>
		<path style="clip-path:url(#SVGID_200_);fill:#BEDC32;" d="M6910.286,3170.76c-0.034,0-0.067,0.004-0.103,0.004
			c-20.246,0-36.697-16.211-37.105-36.361h18.562c0.402,9.896,8.547,17.8,18.543,17.8c0.035,0,0.068-0.004,0.103-0.004V3170.76z"/>
	</g>
	<g>
		<defs>
			<rect id="SVGID_201_" x="6843.596" y="3067.672" width="133.809" height="133.656"/>
		</defs>
		<clipPath id="SVGID_202_">
			<use xlink:href="#SVGID_201_"  style="overflow:visible;"/>
		</clipPath>
		<path style="clip-path:url(#SVGID_202_);fill:#A0D200;" d="M6910.286,3098.047c0.034,0,0.067-0.004,0.103-0.004
			c20.248,0,36.695,16.211,37.106,36.359h-18.563c-0.401-9.896-8.547-17.797-18.543-17.797c-0.033,0-0.067,0.004-0.103,0.004
			V3098.047z"/>
	</g>
	<g>
		<defs>
			<rect id="SVGID_203_" x="6843.596" y="3067.672" width="133.809" height="133.656"/>
		</defs>
		<clipPath id="SVGID_204_">
			<use xlink:href="#SVGID_203_"  style="overflow:visible;"/>
		</clipPath>
		<path style="clip-path:url(#SVGID_204_);fill:#A0D200;" d="M6977.402,3134.402c-0.408-36.801-30.264-66.529-67.117-66.729v22.498
			c24.428,0.199,44.213,19.855,44.619,44.23L6977.402,3134.402L6977.402,3134.402z"/>
	</g>
	<g>
		<defs>
			<rect id="SVGID_205_" x="6843.596" y="3067.672" width="133.809" height="133.656"/>
		</defs>
		<clipPath id="SVGID_206_">
			<use xlink:href="#SVGID_205_"  style="overflow:visible;"/>
		</clipPath>
		<path style="clip-path:url(#SVGID_206_);fill:#BEDC32;" d="M6910.324,3201.328c-36.801-0.41-66.527-30.269-66.729-67.119h22.5
			c0.197,24.426,19.854,44.211,44.229,44.619V3201.328L6910.324,3201.328z"/>
	</g>
	<g>
		<defs>
			<rect id="SVGID_207_" x="6843.596" y="3067.672" width="133.809" height="133.656"/>
		</defs>
		<clipPath id="SVGID_208_">
			<use xlink:href="#SVGID_207_"  style="overflow:visible;"/>
		</clipPath>
		<path style="clip-path:url(#SVGID_208_);fill:#828282;" d="M6910.42,3143.719c5.223,0,9.45-4.229,9.45-9.451
			c0-5.219-4.229-9.448-9.45-9.448c-5.219,0-9.449,4.229-9.449,9.448C6900.971,3139.488,6905.202,3143.719,6910.42,3143.719"/>
	</g>
</g>
<g>
	<g>
		<g>
			<defs>
				<rect id="SVGID_209_" x="-1586.921" y="-157.25" width="177.842" height="62.5"/>
			</defs>
			<clipPath id="SVGID_210_">
				<use xlink:href="#SVGID_209_"  style="overflow:visible;"/>
			</clipPath>
			<path style="clip-path:url(#SVGID_210_);fill:#B2D234;" d="M-1524.421-134.871c-3.062-10.807-11.572-19.316-22.378-22.379v6.471
				c7.396,2.648,13.259,8.512,15.907,15.908H-1524.421z"/>
		</g>
		<g>
			<defs>
				<rect id="SVGID_211_" x="-1586.921" y="-157.25" width="177.842" height="62.5"/>
			</defs>
			<clipPath id="SVGID_212_">
				<use xlink:href="#SVGID_211_"  style="overflow:visible;"/>
			</clipPath>
			<path style="clip-path:url(#SVGID_212_);fill:#555555;" d="M-1564.542-157.25c-10.807,3.062-19.316,11.572-22.378,22.379h6.47
				c2.648-7.396,8.512-13.26,15.908-15.908V-157.25L-1564.542-157.25z"/>
		</g>
		<g>
			<defs>
				<rect id="SVGID_213_" x="-1586.921" y="-157.25" width="177.842" height="62.5"/>
			</defs>
			<clipPath id="SVGID_214_">
				<use xlink:href="#SVGID_213_"  style="overflow:visible;"/>
			</clipPath>
			<path style="clip-path:url(#SVGID_214_);fill:#555555;" d="M-1586.921-117.129c3.062,10.807,11.572,19.316,22.379,22.379v-6.471
				c-7.396-2.648-13.26-8.512-15.908-15.908H-1586.921z"/>
		</g>
		<g>
			<defs>
				<rect id="SVGID_215_" x="-1586.921" y="-157.25" width="177.842" height="62.5"/>
			</defs>
			<clipPath id="SVGID_216_">
				<use xlink:href="#SVGID_215_"  style="overflow:visible;"/>
			</clipPath>
			<path style="clip-path:url(#SVGID_216_);fill:#555555;" d="M-1546.799-94.75c10.806-3.062,19.316-11.572,22.378-22.379h-6.47
				c-2.648,7.396-8.512,13.26-15.908,15.908V-94.75L-1546.799-94.75z"/>
		</g>
	</g>
	<polygon style="fill:#B2D234;" points="-1571.249,-125.479 -1545.759,-136.475 -1556.755,-110.984 -1560.003,-121.98 	"/>
	<g>
		<g>
			<defs>
				<rect id="SVGID_217_" x="-1586.921" y="-157.25" width="177.842" height="62.5"/>
			</defs>
			<clipPath id="SVGID_218_">
				<use xlink:href="#SVGID_217_"  style="overflow:visible;"/>
			</clipPath>
			<path style="clip-path:url(#SVGID_218_);fill:#555555;" d="M-1439.623-144.466h5.104l10.256,24.073l10.062-24.073h5.122v36.933
				h-5.416v-23.033h-0.123l-7.486,17.736h-4.518l-7.486-17.736h-0.099v23.033h-5.416V-144.466z M-1473.854-144.466h13.977
				c2.98,0,5.412,0.811,7.296,2.432c2.267,1.841,3.448,4.467,3.546,7.878c-0.064,5.016-2.367,8.426-6.907,10.233l8.279,16.39h-6.435
				l-7.403-15.784h-6.937v15.784h-5.416V-144.466L-1473.854-144.466z M-1468.438-128.277h8.215c2.033-0.033,3.559-0.643,4.576-1.828
				c1-1.102,1.5-2.456,1.5-4.064c-0.033-1.93-0.631-3.327-1.796-4.19c-0.918-0.763-2.247-1.144-3.984-1.144h-8.511V-128.277z
				 M-1507.375-144.466h22.853v5.267h-17.437v10.567h14.884v4.96h-14.884v10.871h17.437v5.268h-22.853V-144.466z"/>
		</g>
	</g>
</g>
<g>
	<g>
		<g>
			<defs>
				<rect id="SVGID_219_" x="-1586.921" y="192.75" width="177.842" height="62.5"/>
			</defs>
			<clipPath id="SVGID_220_">
				<use xlink:href="#SVGID_219_"  style="overflow:visible;"/>
			</clipPath>
			<path style="clip-path:url(#SVGID_220_);fill:#B1D134;" d="M-1524.421,215.129c-3.062-10.807-11.572-19.316-22.378-22.379v6.471
				c7.396,2.648,13.259,8.512,15.907,15.908H-1524.421z"/>
		</g>
		<g>
			<defs>
				<rect id="SVGID_221_" x="-1586.921" y="192.75" width="177.842" height="62.5"/>
			</defs>
			<clipPath id="SVGID_222_">
				<use xlink:href="#SVGID_221_"  style="overflow:visible;"/>
			</clipPath>
			<path style="clip-path:url(#SVGID_222_);fill:#FFFFFF;" d="M-1564.542,192.75c-10.807,3.062-19.316,11.572-22.378,22.379h6.47
				c2.648-7.396,8.512-13.26,15.908-15.908V192.75L-1564.542,192.75z"/>
		</g>
		<g>
			<defs>
				<rect id="SVGID_223_" x="-1586.921" y="192.75" width="177.842" height="62.5"/>
			</defs>
			<clipPath id="SVGID_224_">
				<use xlink:href="#SVGID_223_"  style="overflow:visible;"/>
			</clipPath>
			<path style="clip-path:url(#SVGID_224_);fill:#FFFFFF;" d="M-1586.921,232.871c3.062,10.807,11.572,19.316,22.379,22.379v-6.471
				c-7.396-2.648-13.26-8.512-15.908-15.908H-1586.921z"/>
		</g>
		<g>
			<defs>
				<rect id="SVGID_225_" x="-1586.921" y="192.75" width="177.842" height="62.5"/>
			</defs>
			<clipPath id="SVGID_226_">
				<use xlink:href="#SVGID_225_"  style="overflow:visible;"/>
			</clipPath>
			<path style="clip-path:url(#SVGID_226_);fill:#FFFFFF;" d="M-1546.799,255.25c10.806-3.062,19.316-11.572,22.378-22.379h-6.47
				c-2.648,7.396-8.512,13.26-15.908,15.908V255.25L-1546.799,255.25z"/>
		</g>
	</g>
	<polygon style="fill:#B1D134;" points="-1571.249,224.521 -1545.759,213.525 -1556.755,239.016 -1560.003,228.02 	"/>
	<g>
		<g>
			<defs>
				<rect id="SVGID_227_" x="-1586.921" y="192.75" width="177.842" height="62.5"/>
			</defs>
			<clipPath id="SVGID_228_">
				<use xlink:href="#SVGID_227_"  style="overflow:visible;"/>
			</clipPath>
			<path style="clip-path:url(#SVGID_228_);fill:#FFFFFF;" d="M-1439.623,205.534h5.104l10.256,24.073l10.062-24.073h5.122v36.933
				h-5.416v-23.033h-0.123l-7.486,17.736h-4.518l-7.486-17.736h-0.099v23.033h-5.416V205.534z M-1473.854,205.534h13.977
				c2.98,0,5.412,0.812,7.296,2.432c2.267,1.841,3.448,4.468,3.546,7.878c-0.064,5.016-2.367,8.426-6.907,10.233l8.279,16.39h-6.435
				l-7.403-15.783h-6.937v15.783h-5.416V205.534L-1473.854,205.534z M-1468.438,221.723h8.215c2.033-0.033,3.559-0.643,4.576-1.828
				c1-1.102,1.5-2.455,1.5-4.063c-0.033-1.931-0.631-3.327-1.796-4.19c-0.918-0.763-2.247-1.144-3.984-1.144h-8.511V221.723z
				 M-1507.375,205.534h22.853v5.267h-17.437v10.567h14.884v4.96h-14.884v10.871h17.437v5.268h-22.853V205.534z"/>
		</g>
	</g>
</g>
</svg>
